<svg xmlns="http://www.w3.org/2000/svg" xmlns:xlink="http://www.w3.org/1999/xlink" viewBox="0,0,256,256" width="240px" height="240px"><g transform="translate(10.24,10.24) scale(0.92,0.92)"><g fill="none" fill-rule="nonzero" stroke="none" stroke-width="none" stroke-linecap="butt" stroke-linejoin="none" stroke-miterlimit="10" stroke-dasharray="" stroke-dashoffset="0" font-family="none" font-weight="none" font-size="none" text-anchor="none" style="mix-blend-mode: normal"><path transform="scale(5.33333,5.33333)" d="M41,5l-3,34l-14,4l-14,-4l-3,-34z" id="strokeMainSVG" fill="#dddddd" stroke="#dddddd" stroke-width="6" stroke-linejoin="round"></path><g transform="scale(5.33333,5.33333)" stroke="none" stroke-width="1" stroke-linejoin="miter"><path d="M41,5h-34l3,34l14,4l14,-4l3,-34z" fill="#e65100"></path><path d="M24,8v31.9l11.2,-3.2l2.5,-28.7z" fill="#ff6d00"></path><path d="M24,25v-4h8.6l-0.7,11.5l-7.9,2.6v-4.2l4.1,-1.4l0.3,-4.5zM32.9,17l0.3,-4h-9.2v4z" fill="#ffffff"></path><path d="M24,30.9v4.2l-7.9,-2.6l-0.4,-5.5h4l0.2,2.5zM19.1,17h4.9v-4h-9.1l0.7,12h8.4v-4h-4.6z" fill="#eeeeee"></path></g></g><g fill="none" fill-rule="nonzero" stroke="none" stroke-width="none" stroke-linecap="butt" stroke-linejoin="none" stroke-miterlimit="10" stroke-dasharray="" stroke-dashoffset="0" font-family="none" font-weight="none" font-size="none" text-anchor="none" style="mix-blend-mode: normal"><path d="M112.71,239.58667v18.96h-2.51v-8.77h-9.56v8.77h-2.5v-18.96h2.5v8.15h9.56v-8.15zM129.87,239.58667v2.06h-6.09v16.9h-2.49v-16.9h-6.08v-2.06zM132.68,239.58667h3.23l6.2,15.47l6.2,-15.47h3.24v18.96h-2.5v-7.39l0.24,-7.96l-6.23,15.35h-1.91l-6.21,-15.32l0.24,7.93v7.39h-2.5zM158.48,239.58667v16.91h8.98v2.05h-11.49v-18.96z" id="strokeMainSVG" fill="#dddddd" stroke="#dddddd" stroke-width="26.66667" stroke-linejoin="round"></path><g fill="#000000" stroke="none" stroke-width="1" stroke-linejoin="miter"><path d="M112.71,239.58667v18.96h-2.51v-8.77h-9.56v8.77h-2.5v-18.96h2.5v8.15h9.56v-8.15zM129.87,239.58667v2.06h-6.09v16.9h-2.49v-16.9h-6.08v-2.06zM132.68,239.58667h3.23l6.2,15.47l6.2,-15.47h3.24v18.96h-2.5v-7.39l0.24,-7.96l-6.23,15.35h-1.91l-6.21,-15.32l0.24,7.93v7.39h-2.5zM158.48,239.58667v16.91h8.98v2.05h-11.49v-18.96z"></path></g></g></g></svg>