<svg xmlns="http://www.w3.org/2000/svg" xmlns:xlink="http://www.w3.org/1999/xlink" viewBox="0,0,256,256" width="240px" height="240px"><g transform="translate(10.24,10.24) scale(0.92,0.92)"><g fill="none" fill-rule="nonzero" stroke="none" stroke-width="none" stroke-linecap="butt" stroke-linejoin="none" stroke-miterlimit="10" stroke-dasharray="" stroke-dashoffset="0" font-family="none" font-weight="none" font-size="none" text-anchor="none" style="mix-blend-mode: normal"><path transform="scale(5.33333,5.33333)" d="M41,5l-3,34l-14,4l-14,-4l-3,-34z" id="strokeMainSVG" fill="#dddddd" stroke="#dddddd" stroke-width="6" stroke-linejoin="round"></path><g transform="scale(5.33333,5.33333)" stroke="none" stroke-width="1" stroke-linejoin="miter"><path d="M41,5h-34l3,34l14,4l14,-4l3,-34z" fill="#bd3b02"></path><path d="M24,8v31.9l11.2,-3.2l2.5,-28.7z" fill="#039be5"></path><path d="M33.1,13h-9.1v4h4.9l-0.3,4h-4.6v4h4.4l-0.3,4.5l-4.1,1.4v4.2l7.9,-2.6l0.7,-11.5v0z" fill="#ffffff"></path><path d="M24,13v4h-8.9l-0.3,-4zM19.4,21l0.2,4h4.4v-4zM19.8,27h-4l0.3,5.5l7.9,2.6v-4.2l-4.1,-1.4z" fill="#eeeeee"></path></g></g><g fill="none" fill-rule="nonzero" stroke="none" stroke-width="none" stroke-linecap="butt" stroke-linejoin="none" stroke-miterlimit="10" stroke-dasharray="" stroke-dashoffset="0" font-family="none" font-weight="none" font-size="none" text-anchor="none" style="mix-blend-mode: normal"><path d="M121.07167,248.26c-0.24,2.00667 -0.98,3.55333 -2.22,4.64c-1.24667,1.09333 -2.90333,1.64 -4.97,1.64c-2.24,0 -4.03667,-0.80333 -5.39,-2.41c-1.34667,-1.60667 -2.02,-3.75667 -2.02,-6.45v-1.82c0,-1.76 0.31333,-3.31 0.94,-4.65c0.63333,-1.33333 1.52667,-2.36 2.68,-3.08c1.15333,-0.71333 2.49,-1.07 4.01,-1.07c2.01333,0 3.62667,0.56 4.84,1.68c1.22,1.12667 1.93,2.68333 2.13,4.67h-2.52c-0.21333,-1.50667 -0.68333,-2.6 -1.41,-3.28c-0.72667,-0.67333 -1.74,-1.01 -3.04,-1.01c-1.6,0 -2.85333,0.59 -3.76,1.77c-0.90667,1.18 -1.36,2.86 -1.36,5.04v1.83c0,2.06 0.43,3.69667 1.29,4.91c0.86,1.21333 2.06333,1.82 3.61,1.82c1.38667,0 2.45,-0.31333 3.19,-0.94c0.74667,-0.63333 1.24,-1.73 1.48,-3.29zM132.30167,250.54c0,-0.65333 -0.24333,-1.16 -0.73,-1.52c-0.49333,-0.36 -1.35,-0.67 -2.57,-0.93c-1.22,-0.26 -2.18667,-0.57333 -2.9,-0.94c-0.72,-0.36 -1.25,-0.79333 -1.59,-1.3c-0.34,-0.5 -0.51,-1.09667 -0.51,-1.79c0,-1.16 0.48667,-2.13667 1.46,-2.93c0.98,-0.8 2.22667,-1.2 3.74,-1.2c1.6,0 2.89667,0.41 3.89,1.23c0.99333,0.82667 1.49,1.88333 1.49,3.17h-2.42c0,-0.66 -0.28,-1.23 -0.84,-1.71c-0.56,-0.47333 -1.26667,-0.71 -2.12,-0.71c-0.87333,0 -1.55667,0.19 -2.05,0.57c-0.5,0.38 -0.75,0.88 -0.75,1.5c0,0.58 0.23,1.01667 0.69,1.31c0.46,0.3 1.29333,0.58333 2.5,0.85c1.2,0.26667 2.17333,0.58667 2.92,0.96c0.74667,0.37333 1.3,0.82333 1.66,1.35c0.36,0.52667 0.54,1.16667 0.54,1.92c0,1.26 -0.50333,2.27 -1.51,3.03c-1.00667,0.76 -2.31333,1.14 -3.92,1.14c-1.12667,0 -2.12333,-0.2 -2.99,-0.6c-0.86667,-0.4 -1.54667,-0.96 -2.04,-1.68c-0.49333,-0.71333 -0.74,-1.48667 -0.74,-2.32h2.41c0.04667,0.80667 0.37,1.44667 0.97,1.92c0.60667,0.47333 1.40333,0.71 2.39,0.71c0.91333,0 1.64667,-0.18333 2.2,-0.55c0.54667,-0.37333 0.82,-0.86667 0.82,-1.48zM146.05167,250.54c0,-0.65333 -0.24333,-1.16 -0.73,-1.52c-0.49333,-0.36 -1.35,-0.67 -2.57,-0.93c-1.22,-0.26 -2.18667,-0.57333 -2.9,-0.94c-0.72,-0.36 -1.25,-0.79333 -1.59,-1.3c-0.34,-0.5 -0.51,-1.09667 -0.51,-1.79c0,-1.16 0.48667,-2.13667 1.46,-2.93c0.98,-0.8 2.22667,-1.2 3.74,-1.2c1.6,0 2.89667,0.41 3.89,1.23c0.99333,0.82667 1.49,1.88333 1.49,3.17h-2.42c0,-0.66 -0.28,-1.23 -0.84,-1.71c-0.56,-0.47333 -1.26667,-0.71 -2.12,-0.71c-0.87333,0 -1.55667,0.19 -2.05,0.57c-0.5,0.38 -0.75,0.88 -0.75,1.5c0,0.58 0.23,1.01667 0.69,1.31c0.46,0.3 1.29333,0.58333 2.5,0.85c1.2,0.26667 2.17333,0.58667 2.92,0.96c0.74667,0.37333 1.3,0.82333 1.66,1.35c0.36,0.52667 0.54,1.16667 0.54,1.92c0,1.26 -0.50333,2.27 -1.51,3.03c-1.00667,0.76 -2.31333,1.14 -3.92,1.14c-1.12667,0 -2.12333,-0.2 -2.99,-0.6c-0.86667,-0.4 -1.54667,-0.96 -2.04,-1.68c-0.49333,-0.71333 -0.74,-1.48667 -0.74,-2.32h2.41c0.04667,0.80667 0.37,1.44667 0.97,1.92c0.60667,0.47333 1.40333,0.71 2.39,0.71c0.91333,0 1.64667,-0.18333 2.2,-0.55c0.54667,-0.37333 0.82,-0.86667 0.82,-1.48z" id="strokeMainSVG" fill="#dddddd" stroke="#dddddd" stroke-width="21.33333" stroke-linejoin="round"></path><g fill="#000000" stroke="none" stroke-width="1" stroke-linejoin="miter"><path d="M118.55167,248.26h2.52c-0.24,2.00667 -0.98,3.55333 -2.22,4.64c-1.24667,1.09333 -2.90333,1.64 -4.97,1.64v0c-2.24,0 -4.03667,-0.80333 -5.39,-2.41c-1.34667,-1.60667 -2.02,-3.75667 -2.02,-6.45v0v-1.82c0,-1.76 0.31333,-3.31 0.94,-4.65c0.63333,-1.33333 1.52667,-2.36 2.68,-3.08c1.15333,-0.71333 2.49,-1.07 4.01,-1.07v0c2.01333,0 3.62667,0.56 4.84,1.68c1.22,1.12667 1.93,2.68333 2.13,4.67v0h-2.52c-0.21333,-1.50667 -0.68333,-2.6 -1.41,-3.28c-0.72667,-0.67333 -1.74,-1.01 -3.04,-1.01v0c-1.6,0 -2.85333,0.59 -3.76,1.77c-0.90667,1.18 -1.36,2.86 -1.36,5.04v0v1.83c0,2.06 0.43,3.69667 1.29,4.91c0.86,1.21333 2.06333,1.82 3.61,1.82v0c1.38667,0 2.45,-0.31333 3.19,-0.94c0.74667,-0.63333 1.24,-1.73 1.48,-3.29zM132.30167,250.54v0c0,-0.65333 -0.24333,-1.16 -0.73,-1.52c-0.49333,-0.36 -1.35,-0.67 -2.57,-0.93c-1.22,-0.26 -2.18667,-0.57333 -2.9,-0.94c-0.72,-0.36 -1.25,-0.79333 -1.59,-1.3c-0.34,-0.5 -0.51,-1.09667 -0.51,-1.79v0c0,-1.16 0.48667,-2.13667 1.46,-2.93c0.98,-0.8 2.22667,-1.2 3.74,-1.2v0c1.6,0 2.89667,0.41 3.89,1.23c0.99333,0.82667 1.49,1.88333 1.49,3.17v0h-2.42c0,-0.66 -0.28,-1.23 -0.84,-1.71c-0.56,-0.47333 -1.26667,-0.71 -2.12,-0.71v0c-0.87333,0 -1.55667,0.19 -2.05,0.57c-0.5,0.38 -0.75,0.88 -0.75,1.5v0c0,0.58 0.23,1.01667 0.69,1.31c0.46,0.3 1.29333,0.58333 2.5,0.85c1.2,0.26667 2.17333,0.58667 2.92,0.96c0.74667,0.37333 1.3,0.82333 1.66,1.35c0.36,0.52667 0.54,1.16667 0.54,1.92v0c0,1.26 -0.50333,2.27 -1.51,3.03c-1.00667,0.76 -2.31333,1.14 -3.92,1.14v0c-1.12667,0 -2.12333,-0.2 -2.99,-0.6c-0.86667,-0.4 -1.54667,-0.96 -2.04,-1.68c-0.49333,-0.71333 -0.74,-1.48667 -0.74,-2.32v0h2.41c0.04667,0.80667 0.37,1.44667 0.97,1.92c0.60667,0.47333 1.40333,0.71 2.39,0.71v0c0.91333,0 1.64667,-0.18333 2.2,-0.55c0.54667,-0.37333 0.82,-0.86667 0.82,-1.48zM146.05167,250.54v0c0,-0.65333 -0.24333,-1.16 -0.73,-1.52c-0.49333,-0.36 -1.35,-0.67 -2.57,-0.93c-1.22,-0.26 -2.18667,-0.57333 -2.9,-0.94c-0.72,-0.36 -1.25,-0.79333 -1.59,-1.3c-0.34,-0.5 -0.51,-1.09667 -0.51,-1.79v0c0,-1.16 0.48667,-2.13667 1.46,-2.93c0.98,-0.8 2.22667,-1.2 3.74,-1.2v0c1.6,0 2.89667,0.41 3.89,1.23c0.99333,0.82667 1.49,1.88333 1.49,3.17v0h-2.42c0,-0.66 -0.28,-1.23 -0.84,-1.71c-0.56,-0.47333 -1.26667,-0.71 -2.12,-0.71v0c-0.87333,0 -1.55667,0.19 -2.05,0.57c-0.5,0.38 -0.75,0.88 -0.75,1.5v0c0,0.58 0.23,1.01667 0.69,1.31c0.46,0.3 1.29333,0.58333 2.5,0.85c1.2,0.26667 2.17333,0.58667 2.92,0.96c0.74667,0.37333 1.3,0.82333 1.66,1.35c0.36,0.52667 0.54,1.16667 0.54,1.92v0c0,1.26 -0.50333,2.27 -1.51,3.03c-1.00667,0.76 -2.31333,1.14 -3.92,1.14v0c-1.12667,0 -2.12333,-0.2 -2.99,-0.6c-0.86667,-0.4 -1.54667,-0.96 -2.04,-1.68c-0.49333,-0.71333 -0.74,-1.48667 -0.74,-2.32v0h2.41c0.04667,0.80667 0.37,1.44667 0.97,1.92c0.60667,0.47333 1.40333,0.71 2.39,0.71v0c0.91333,0 1.64667,-0.18333 2.2,-0.55c0.54667,-0.37333 0.82,-0.86667 0.82,-1.48z"></path></g></g></g></svg>