<svg xmlns="http://www.w3.org/2000/svg" xmlns:xlink="http://www.w3.org/1999/xlink" viewBox="0,0,256,256" width="240px" height="240px"><g transform="translate(10.24,10.24) scale(0.92,0.92)"><g fill="none" fill-rule="nonzero" stroke="none" stroke-width="none" stroke-linecap="butt" stroke-linejoin="none" stroke-miterlimit="10" stroke-dasharray="" stroke-dashoffset="0" font-family="none" font-weight="none" font-size="none" text-anchor="none" style="mix-blend-mode: normal"><path transform="scale(5.33333,5.33333)" d="M44,24c0,11 -9,20 -20,20c-11,0 -20,-9 -20,-20c0,-11 9,-20 20,-20c11,0 20,9 20,20z" id="strokeMainSVG" fill="#dddddd" stroke="#dddddd" stroke-width="6" stroke-linejoin="round"></path><g transform="scale(5.33333,5.33333)" stroke="none" stroke-width="1" stroke-linejoin="miter"><path d="M41,24c0,9.4 -7.6,17 -17,17c-9.4,0 -17,-7.6 -17,-17c0,-9.4 7.6,-17 17,-17c9.4,0 17,7.6 17,17z" fill="#ffffff"></path><path d="M21,41v-5.5c0,-0.3 0.2,-0.5 0.5,-0.5c0.3,0 0.5,0.2 0.5,0.5v5.5h2v-6.5c0,-0.3 0.2,-0.5 0.5,-0.5c0.3,0 0.5,0.2 0.5,0.5v6.5h2v-5.5c0,-0.3 0.2,-0.5 0.5,-0.5c0.3,0 0.5,0.2 0.5,0.5v5.5h1.8c0.2,-0.3 0.2,-0.6 0.2,-1.1v-3.9c0,-2.2 -1.9,-5.2 -4.3,-5.2h-2.5c-2.3,0 -4.3,3.1 -4.3,5.2v3.9c0,0.4 0.1,0.8 0.2,1.1h1.9zM40.1,26.4v0c0,0 -1.3,-0.4 -2.4,-0.4h-0.1c-1.1,0 -2.9,0.3 -2.9,0.3c-0.1,0 -0.1,0 -0.1,-0.1c0,-0.1 0,-0.1 0.1,-0.1c0.1,0 2,-0.3 3.1,-0.3c1.1,0 2.4,0.4 2.5,0.4c0.1,0 0.1,0.1 0.1,0.2c-0.2,-0.1 -0.2,0 -0.3,0zM39.8,27.2v0c0,0 -1.4,-0.4 -2.6,-0.4c-0.9,0 -3,0.2 -3.1,0.2c-0.1,0 -0.1,0 -0.1,-0.1c0,-0.1 0,-0.1 0.1,-0.1c0.1,0 2.2,-0.2 3.1,-0.2c1.3,0 2.6,0.4 2.6,0.4c0.1,0 0.1,0.1 0.1,0.2c0,-0.1 0,0 -0.1,0zM7.8,26.4c-0.1,0 -0.1,0 -0.1,-0.1c0,-0.1 0,-0.1 0.1,-0.2c0.8,-0.2 2.4,-0.5 3.3,-0.5c0.8,0 3.5,0.2 3.6,0.2c0.1,0 0.1,0.1 0.1,0.1c0,0.1 -0.1,0.1 -0.1,0.1c0,0 -2.7,-0.2 -3.5,-0.2c-1.1,0.2 -2.6,0.4 -3.4,0.6zM8.2,27.9c0,0 -0.1,0 -0.1,-0.1c0,-0.1 0,-0.1 0,-0.2c0.1,0 1.4,-0.8 2.9,-1c1.3,-0.2 4,0.1 4.2,0.1c0.1,0 0.1,0.1 0.1,0.1c0,0.1 -0.1,0.1 -0.1,0.1v0c0,0 -2.8,-0.3 -4.1,-0.1c-1.5,0.3 -2.9,1.1 -2.9,1.1z" fill="#455a64"></path><path d="M14.2,23.5c0,-4.4 4.6,-8.5 10.3,-8.5c5.7,0 10.3,4 10.3,8.5c0,4.5 -3.3,7.5 -10.3,7.5c-7,0 -10.3,-3.1 -10.3,-7.5z" fill="#455a64"></path><path d="M28.6,16.3c0,0 1.7,-2.3 4.8,-2.3c1.2,1.2 0.4,4.8 0,5.8zM20.4,16.3c0,0 -1.7,-2.3 -4.8,-2.3c-1.2,1.2 -0.4,4.8 0,5.8zM20.1,35.9c0,0 -2.3,0 -2.8,0c-1.2,0 -2.3,-0.5 -2.8,-1.5c-0.6,-1.1 -1.1,-2.3 -2.6,-3.3c-0.3,-0.2 -0.1,-0.4 0.4,-0.4c0.5,0.1 1.4,0.2 2.1,1.1c0.7,0.9 1.5,2 2.8,2c1.3,0 2.7,0 3.5,-0.9z" fill="#455a64"></path><path d="M24,4c-11,0 -20,9 -20,20c0,11 9,20 20,20c11,0 20,-9 20,-20c0,-11 -9,-20 -20,-20zM24,40c-8.8,0 -16,-7.2 -16,-16c0,-8.8 7.2,-16 16,-16c8.8,0 16,7.2 16,16c0,8.8 -7.2,16 -16,16z" fill="#000000"></path></g></g><g fill="none" fill-rule="nonzero" stroke="none" stroke-width="none" stroke-linecap="butt" stroke-linejoin="none" stroke-miterlimit="10" stroke-dasharray="" stroke-dashoffset="0" font-family="none" font-weight="none" font-size="none" text-anchor="none" style="mix-blend-mode: normal"><path d="M103.565,251.63v6.95c-0.64667,0.92 -1.54333,1.60667 -2.69,2.06c-1.15333,0.46 -2.49333,0.69 -4.02,0.69c-1.54667,0 -2.91667,-0.36333 -4.11,-1.09c-1.2,-0.72667 -2.12667,-1.75667 -2.78,-3.09c-0.66,-1.34 -0.99667,-2.89 -1.01,-4.65v-1.65c0,-2.86 0.66667,-5.07667 2,-6.65c1.33333,-1.56667 3.20667,-2.35 5.62,-2.35c1.97333,0 3.56333,0.50333 4.77,1.51c1.20667,1.01333 1.94667,2.45 2.22,4.31h-2.5c-0.47333,-2.50667 -1.96667,-3.76 -4.48,-3.76c-1.67333,0 -2.94333,0.58667 -3.81,1.76c-0.86667,1.17333 -1.30333,2.87667 -1.31,5.11v1.55c0,2.12667 0.48667,3.81667 1.46,5.07c0.97333,1.25333 2.29,1.88 3.95,1.88c0.93333,0 1.75333,-0.10333 2.46,-0.31c0.7,-0.20667 1.28,-0.55667 1.74,-1.05v-4.26h-4.39v-2.03zM109.965,246.98v14.09h-2.4v-14.09zM107.365,243.24c0,-0.38667 0.12,-0.71667 0.36,-0.99c0.24,-0.26667 0.59333,-0.4 1.06,-0.4c0.46667,0 0.82333,0.13333 1.07,0.4c0.24,0.27333 0.36,0.60333 0.36,0.99c0,0.39333 -0.12,0.72 -0.36,0.98c-0.24667,0.26 -0.60333,0.39 -1.07,0.39c-0.46667,0 -0.82,-0.13 -1.06,-0.39c-0.24,-0.26 -0.36,-0.58667 -0.36,-0.98zM114.685,243.57h2.41v3.41h2.63v1.86h-2.63v8.74c0,0.56 0.11667,0.98333 0.35,1.27c0.23333,0.28 0.63333,0.42 1.2,0.42c0.27333,0 0.65333,-0.05333 1.14,-0.16v1.96c-0.63333,0.17333 -1.25,0.26 -1.85,0.26c-1.07333,0 -1.88333,-0.32667 -2.43,-0.98c-0.54667,-0.65333 -0.82,-1.57667 -0.82,-2.77v-8.74h-2.57v-1.86h2.57zM124.945,241.07v7.61c1.06667,-1.30667 2.45333,-1.96 4.16,-1.96c2.98,0 4.48333,1.68 4.51,5.04v9.31h-2.41v-9.33c-0.00667,-1.01333 -0.24,-1.76333 -0.7,-2.25c-0.45333,-0.48667 -1.16,-0.73 -2.12,-0.73c-0.78667,0 -1.47333,0.21 -2.06,0.63c-0.59333,0.41333 -1.05333,0.96 -1.38,1.64v10.04h-2.41v-20zM145.975,261.07l-0.06,-1.4c-0.93333,1.10667 -2.30667,1.66 -4.12,1.66c-1.50667,0 -2.65,-0.43667 -3.43,-1.31c-0.78667,-0.87333 -1.18667,-2.16667 -1.2,-3.88v-9.16h2.41v9.1c0,2.13333 0.87,3.2 2.61,3.2c1.84,0 3.06333,-0.68333 3.67,-2.05v-10.25h2.41v14.09zM163.845,254.18c0,2.15333 -0.49333,3.88333 -1.48,5.19c-0.98667,1.30667 -2.31333,1.96 -3.98,1.96c-1.78,0 -3.15667,-0.63 -4.13,-1.89l-0.12,1.63h-2.21v-20h2.41v7.46c0.96667,-1.20667 2.30667,-1.81 4.02,-1.81c1.70667,0 3.05,0.64667 4.03,1.94c0.97333,1.29333 1.46,3.06333 1.46,5.31zM161.445,253.91c0,-1.64667 -0.31667,-2.91667 -0.95,-3.81c-0.64,-0.89333 -1.55333,-1.34 -2.74,-1.34c-1.58667,0 -2.72667,0.74 -3.42,2.22v6.09c0.73333,1.47333 1.88333,2.21 3.45,2.21c1.15333,0 2.05,-0.44667 2.69,-1.34c0.64667,-0.89333 0.97,-2.23667 0.97,-4.03z" id="strokeMainSVG" fill="#dddddd" stroke="#dddddd" stroke-width="21.33333" stroke-linejoin="round"></path><g fill="#000000" stroke="none" stroke-width="1" stroke-linejoin="miter"><path d="M103.565,251.63v6.95c-0.64667,0.92 -1.54333,1.60667 -2.69,2.06c-1.15333,0.46 -2.49333,0.69 -4.02,0.69v0c-1.54667,0 -2.91667,-0.36333 -4.11,-1.09c-1.2,-0.72667 -2.12667,-1.75667 -2.78,-3.09c-0.66,-1.34 -0.99667,-2.89 -1.01,-4.65v0v-1.65c0,-2.86 0.66667,-5.07667 2,-6.65c1.33333,-1.56667 3.20667,-2.35 5.62,-2.35v0c1.97333,0 3.56333,0.50333 4.77,1.51c1.20667,1.01333 1.94667,2.45 2.22,4.31v0h-2.5c-0.47333,-2.50667 -1.96667,-3.76 -4.48,-3.76v0c-1.67333,0 -2.94333,0.58667 -3.81,1.76c-0.86667,1.17333 -1.30333,2.87667 -1.31,5.11v0v1.55c0,2.12667 0.48667,3.81667 1.46,5.07c0.97333,1.25333 2.29,1.88 3.95,1.88v0c0.93333,0 1.75333,-0.10333 2.46,-0.31c0.7,-0.20667 1.28,-0.55667 1.74,-1.05v0v-4.26h-4.39v-2.03zM109.965,246.98v14.09h-2.4v-14.09zM107.365,243.24v0c0,-0.38667 0.12,-0.71667 0.36,-0.99c0.24,-0.26667 0.59333,-0.4 1.06,-0.4c0.46667,0 0.82333,0.13333 1.07,0.4c0.24,0.27333 0.36,0.60333 0.36,0.99c0,0.39333 -0.12,0.72 -0.36,0.98c-0.24667,0.26 -0.60333,0.39 -1.07,0.39c-0.46667,0 -0.82,-0.13 -1.06,-0.39c-0.24,-0.26 -0.36,-0.58667 -0.36,-0.98zM114.685,243.57h2.41v3.41h2.63v1.86h-2.63v8.74c0,0.56 0.11667,0.98333 0.35,1.27c0.23333,0.28 0.63333,0.42 1.2,0.42v0c0.27333,0 0.65333,-0.05333 1.14,-0.16v0v1.96c-0.63333,0.17333 -1.25,0.26 -1.85,0.26v0c-1.07333,0 -1.88333,-0.32667 -2.43,-0.98c-0.54667,-0.65333 -0.82,-1.57667 -0.82,-2.77v0v-8.74h-2.57v-1.86h2.57zM124.945,241.07v7.61c1.06667,-1.30667 2.45333,-1.96 4.16,-1.96v0c2.98,0 4.48333,1.68 4.51,5.04v0v9.31h-2.41v-9.33c-0.00667,-1.01333 -0.24,-1.76333 -0.7,-2.25c-0.45333,-0.48667 -1.16,-0.73 -2.12,-0.73v0c-0.78667,0 -1.47333,0.21 -2.06,0.63c-0.59333,0.41333 -1.05333,0.96 -1.38,1.64v0v10.04h-2.41v-20zM145.975,261.07l-0.06,-1.4c-0.93333,1.10667 -2.30667,1.66 -4.12,1.66v0c-1.50667,0 -2.65,-0.43667 -3.43,-1.31c-0.78667,-0.87333 -1.18667,-2.16667 -1.2,-3.88v0v-9.16h2.41v9.1c0,2.13333 0.87,3.2 2.61,3.2v0c1.84,0 3.06333,-0.68333 3.67,-2.05v0v-10.25h2.41v14.09zM163.845,253.97v0.21c0,2.15333 -0.49333,3.88333 -1.48,5.19c-0.98667,1.30667 -2.31333,1.96 -3.98,1.96v0c-1.78,0 -3.15667,-0.63 -4.13,-1.89v0l-0.12,1.63h-2.21v-20h2.41v7.46c0.96667,-1.20667 2.30667,-1.81 4.02,-1.81c1.70667,0 3.05,0.64667 4.03,1.94c0.97333,1.29333 1.46,3.06333 1.46,5.31zM161.445,253.91v0c0,-1.64667 -0.31667,-2.91667 -0.95,-3.81c-0.64,-0.89333 -1.55333,-1.34 -2.74,-1.34v0c-1.58667,0 -2.72667,0.74 -3.42,2.22v0v6.09c0.73333,1.47333 1.88333,2.21 3.45,2.21v0c1.15333,0 2.05,-0.44667 2.69,-1.34c0.64667,-0.89333 0.97,-2.23667 0.97,-4.03z"></path></g></g></g></svg>