<svg xmlns="http://www.w3.org/2000/svg" xmlns:xlink="http://www.w3.org/1999/xlink" viewBox="0,0,256,256" width="240px" height="240px"><g transform="translate(6.4,6.4) scale(0.95,0.95)"><g fill="none" fill-rule="nonzero" stroke="none" stroke-width="none" stroke-linecap="butt" stroke-linejoin="none" stroke-miterlimit="10" stroke-dasharray="" stroke-dashoffset="0" font-family="none" font-weight="none" font-size="none" text-anchor="none" style="mix-blend-mode: normal"><path transform="scale(5.33333,5.33333)" d="M6,42v-36h36v36z" id="strokeMainSVG" fill="#dddddd" stroke="#dddddd" stroke-width="6" stroke-linejoin="round"></path><g transform="scale(5.33333,5.33333)" stroke="none" stroke-width="1" stroke-linejoin="miter"><path d="M6,42v-36h36v36z" fill="#ffd600"></path><path d="M29.538,32.947c0.692,1.124 1.444,2.201 3.037,2.201c1.338,0 2.04,-0.665 2.04,-1.585c0,-1.101 -0.726,-1.492 -2.198,-2.133l-0.807,-0.344c-2.329,-0.988 -3.878,-2.226 -3.878,-4.841c0,-2.41 1.845,-4.244 4.728,-4.244c2.053,0 3.528,0.711 4.592,2.573l-2.514,1.607c-0.553,-0.988 -1.151,-1.377 -2.078,-1.377c-0.946,0 -1.545,0.597 -1.545,1.377c0,0.964 0.6,1.354 1.985,1.951l0.807,0.344c2.745,1.169 4.293,2.363 4.293,5.047c0,2.892 -2.284,4.477 -5.35,4.477c-2.999,0 -4.702,-1.505 -5.65,-3.368zM17.952,33.029c0.506,0.906 1.275,1.603 2.381,1.603c1.058,0 1.667,-0.418 1.667,-2.043v-10.589h3.333v11.101c0,3.367 -1.953,4.899 -4.805,4.899c-2.577,0 -4.437,-1.746 -5.195,-3.368z" fill="#000001"></path></g></g><g fill="none" fill-rule="nonzero" stroke="none" stroke-width="none" stroke-linecap="butt" stroke-linejoin="none" stroke-miterlimit="10" stroke-dasharray="" stroke-dashoffset="0" font-family="none" font-weight="none" font-size="none" text-anchor="none" style="mix-blend-mode: normal"><path d="M71.92667,230.61167h2.52v13.42c0,1.81333 -0.54667,3.23333 -1.64,4.26c-1.08667,1.02667 -2.53667,1.54 -4.35,1.54c-1.88667,0 -3.35333,-0.48333 -4.4,-1.45c-1.05333,-0.96 -1.58,-2.31 -1.58,-4.05h2.5c0,1.08667 0.29667,1.93333 0.89,2.54c0.59333,0.60667 1.45667,0.91 2.59,0.91c1.03333,0 1.86667,-0.32333 2.5,-0.97c0.64,-0.65333 0.96333,-1.56667 0.97,-2.74zM89.54667,249.57167h-2.53c-0.13333,-0.28 -0.24333,-0.77667 -0.33,-1.49c-1.12,1.16667 -2.45667,1.75 -4.01,1.75c-1.39333,0 -2.53333,-0.39333 -3.42,-1.18c-0.89333,-0.78667 -1.34,-1.78333 -1.34,-2.99c0,-1.46667 0.56,-2.60667 1.68,-3.42c1.11333,-0.80667 2.68,-1.21 4.7,-1.21h2.35v-1.11c0,-0.84 -0.25333,-1.51 -0.76,-2.01c-0.5,-0.5 -1.24,-0.75 -2.22,-0.75c-0.86,0 -1.58333,0.21667 -2.17,0.65c-0.58,0.43333 -0.87,0.95667 -0.87,1.57h-2.42c0,-0.7 0.25,-1.37667 0.75,-2.03c0.5,-0.66 1.17667,-1.18 2.03,-1.56c0.85333,-0.38 1.79333,-0.57 2.82,-0.57c1.62,0 2.89,0.40667 3.81,1.22c0.92,0.80667 1.4,1.92333 1.44,3.35v6.48c0,1.29333 0.16333,2.32333 0.49,3.09zM83.02667,247.73167c0.75333,0 1.47,-0.19667 2.15,-0.59c0.67333,-0.38667 1.16333,-0.89333 1.47,-1.52v-2.89h-1.89c-2.95333,0 -4.43,0.86333 -4.43,2.59c0,0.75333 0.25333,1.34333 0.76,1.77c0.5,0.42667 1.14667,0.64 1.94,0.64zM93.69667,235.48167l3.58,10.82l3.49,-10.82h2.47l-5.06,14.09h-1.83l-5.11,-14.09zM116.57667,249.57167h-2.52c-0.14,-0.28 -0.25333,-0.77667 -0.34,-1.49c-1.12,1.16667 -2.45667,1.75 -4.01,1.75c-1.39333,0 -2.53333,-0.39333 -3.42,-1.18c-0.89333,-0.78667 -1.34,-1.78333 -1.34,-2.99c0,-1.46667 0.56,-2.60667 1.68,-3.42c1.11333,-0.80667 2.68,-1.21 4.7,-1.21h2.35v-1.11c0,-0.84 -0.25333,-1.51 -0.76,-2.01c-0.5,-0.5 -1.24,-0.75 -2.22,-0.75c-0.86,0 -1.58333,0.21667 -2.17,0.65c-0.58,0.43333 -0.87,0.95667 -0.87,1.57h-2.42c0,-0.7 0.25,-1.37667 0.75,-2.03c0.5,-0.66 1.17667,-1.18 2.03,-1.56c0.85333,-0.38 1.79333,-0.57 2.82,-0.57c1.62,0 2.89,0.40667 3.81,1.22c0.92,0.80667 1.4,1.92333 1.44,3.35v6.48c0,1.29333 0.16333,2.32333 0.49,3.09zM110.05667,247.73167c0.75333,0 1.47,-0.19667 2.15,-0.59c0.67333,-0.38667 1.16333,-0.89333 1.47,-1.52v-2.89h-1.89c-2.95333,0 -4.43,0.86333 -4.43,2.59c0,0.75333 0.25333,1.34333 0.76,1.77c0.5,0.42667 1.14667,0.64 1.94,0.64zM125.82667,241.12167c-2.14667,-0.62 -3.70667,-1.38 -4.68,-2.28c-0.98,-0.89333 -1.47,-2 -1.47,-3.32c0,-1.49333 0.59667,-2.73 1.79,-3.71c1.19333,-0.97333 2.74667,-1.46 4.66,-1.46c1.3,0 2.46,0.25 3.48,0.75c1.02,0.50667 1.81,1.20333 2.37,2.09c0.56,0.88 0.84,1.84667 0.84,2.9h-2.51c0,-1.14667 -0.36667,-2.04667 -1.1,-2.7c-0.72667,-0.65333 -1.75333,-0.98 -3.08,-0.98c-1.23333,0 -2.19667,0.27 -2.89,0.81c-0.68667,0.54 -1.03,1.29333 -1.03,2.26c0,0.77333 0.32667,1.42667 0.98,1.96c0.65333,0.53333 1.77,1.02 3.35,1.46c1.57333,0.44667 2.80333,0.93667 3.69,1.47c0.89333,0.53333 1.55333,1.15667 1.98,1.87c0.43333,0.70667 0.65,1.54333 0.65,2.51c0,1.53333 -0.6,2.76333 -1.8,3.69c-1.2,0.92667 -2.8,1.39 -4.8,1.39c-1.30667,0 -2.52333,-0.25 -3.65,-0.75c-1.12667,-0.5 -1.99667,-1.18333 -2.61,-2.05c-0.61333,-0.86667 -0.92,-1.85333 -0.92,-2.96h2.51c0,1.14667 0.42333,2.05333 1.27,2.72c0.84667,0.66 1.98,0.99 3.4,0.99c1.32,0 2.33,-0.26667 3.03,-0.8c0.7,-0.54 1.05,-1.27333 1.05,-2.2c0,-0.93333 -0.32333,-1.65333 -0.97,-2.16c-0.65333,-0.50667 -1.83333,-1.00667 -3.54,-1.5zM141.32667,247.86167c0.86,0 1.61333,-0.26 2.26,-0.78c0.64,-0.52 0.99333,-1.17 1.06,-1.95h2.28c-0.04,0.80667 -0.31667,1.57333 -0.83,2.3c-0.51333,0.72667 -1.19667,1.31 -2.05,1.75c-0.85333,0.43333 -1.76,0.65 -2.72,0.65c-1.91333,0 -3.43667,-0.64 -4.57,-1.92c-1.13333,-1.28 -1.7,-3.03333 -1.7,-5.26v-0.4c0,-1.37333 0.25,-2.59333 0.75,-3.66c0.50667,-1.06667 1.23,-1.89667 2.17,-2.49c0.94,-0.58667 2.05333,-0.88 3.34,-0.88c1.58,0 2.89333,0.47333 3.94,1.42c1.04667,0.94667 1.60333,2.17333 1.67,3.68h-2.28c-0.06667,-0.91333 -0.41,-1.66 -1.03,-2.24c-0.62,-0.58667 -1.38667,-0.88 -2.3,-0.88c-1.22,0 -2.16667,0.44 -2.84,1.32c-0.67333,0.88 -1.01,2.15333 -1.01,3.82v0.46c0,1.62 0.33333,2.87 1,3.75c0.66667,0.87333 1.62,1.31 2.86,1.31zM156.44667,237.64167c-0.36667,-0.06 -0.76,-0.09 -1.18,-0.09c-1.58,0 -2.65333,0.67333 -3.22,2.02v10h-2.41v-14.09h2.35l0.03,1.63c0.79333,-1.26 1.91333,-1.89 3.36,-1.89c0.47333,0 0.83,0.06 1.07,0.18zM161.27667,235.48167v14.09h-2.41v-14.09zM158.67667,231.74167c0,-0.38667 0.12,-0.71667 0.36,-0.99c0.23333,-0.26667 0.58667,-0.4 1.06,-0.4c0.46667,0 0.82333,0.13333 1.07,0.4c0.24,0.27333 0.36,0.60333 0.36,0.99c0,0.39333 -0.12,0.72 -0.36,0.98c-0.24667,0.26 -0.60333,0.39 -1.07,0.39c-0.47333,0 -0.82667,-0.13 -1.06,-0.39c-0.24,-0.26 -0.36,-0.58667 -0.36,-0.98zM177.03667,242.68167c0,2.14 -0.49,3.86667 -1.47,5.18c-0.98667,1.31333 -2.31667,1.97 -3.99,1.97c-1.70667,0 -3.05,-0.54333 -4.03,-1.63v6.78h-2.41v-19.5h2.2l0.11,1.56c0.98667,-1.21333 2.35,-1.82 4.09,-1.82c1.69333,0 3.03333,0.63667 4.02,1.91c0.98667,1.28 1.48,3.05667 1.48,5.33zM174.62667,242.41167c0,-1.59333 -0.34,-2.85 -1.02,-3.77c-0.67333,-0.92 -1.6,-1.38 -2.78,-1.38c-1.46,0 -2.55333,0.64667 -3.28,1.94v6.73c0.72,1.28667 1.82,1.93 3.3,1.93c1.15333,0 2.07333,-0.45667 2.76,-1.37c0.68,-0.92 1.02,-2.28 1.02,-4.08zM180.95667,232.07167h2.41v3.41h2.63v1.86h-2.63v8.74c0,0.56 0.11667,0.98333 0.35,1.27c0.23333,0.28 0.63333,0.42 1.2,0.42c0.27333,0 0.65333,-0.05333 1.14,-0.16v1.96c-0.63333,0.17333 -1.25,0.26 -1.85,0.26c-1.07333,0 -1.88333,-0.32667 -2.43,-0.98c-0.54667,-0.65333 -0.82,-1.57667 -0.82,-2.77v-8.74h-2.57v-1.86h2.57z" id="strokeMainSVG" fill="#dddddd" stroke="#dddddd" stroke-width="21.33333" stroke-linejoin="round"></path><g fill="#000000" stroke="none" stroke-width="1" stroke-linejoin="miter"><path d="M71.92667,244.07167v-13.46h2.52v13.42c0,1.81333 -0.54667,3.23333 -1.64,4.26c-1.08667,1.02667 -2.53667,1.54 -4.35,1.54v0c-1.88667,0 -3.35333,-0.48333 -4.4,-1.45c-1.05333,-0.96 -1.58,-2.31 -1.58,-4.05v0h2.5c0,1.08667 0.29667,1.93333 0.89,2.54c0.59333,0.60667 1.45667,0.91 2.59,0.91v0c1.03333,0 1.86667,-0.32333 2.5,-0.97c0.64,-0.65333 0.96333,-1.56667 0.97,-2.74zM89.54667,249.57167h-2.53c-0.13333,-0.28 -0.24333,-0.77667 -0.33,-1.49v0c-1.12,1.16667 -2.45667,1.75 -4.01,1.75v0c-1.39333,0 -2.53333,-0.39333 -3.42,-1.18c-0.89333,-0.78667 -1.34,-1.78333 -1.34,-2.99v0c0,-1.46667 0.56,-2.60667 1.68,-3.42c1.11333,-0.80667 2.68,-1.21 4.7,-1.21v0h2.35v-1.11c0,-0.84 -0.25333,-1.51 -0.76,-2.01c-0.5,-0.5 -1.24,-0.75 -2.22,-0.75v0c-0.86,0 -1.58333,0.21667 -2.17,0.65c-0.58,0.43333 -0.87,0.95667 -0.87,1.57v0h-2.42c0,-0.7 0.25,-1.37667 0.75,-2.03c0.5,-0.66 1.17667,-1.18 2.03,-1.56c0.85333,-0.38 1.79333,-0.57 2.82,-0.57v0c1.62,0 2.89,0.40667 3.81,1.22c0.92,0.80667 1.4,1.92333 1.44,3.35v0v6.48c0,1.29333 0.16333,2.32333 0.49,3.09v0zM83.02667,247.73167v0c0.75333,0 1.47,-0.19667 2.15,-0.59c0.67333,-0.38667 1.16333,-0.89333 1.47,-1.52v0v-2.89h-1.89c-2.95333,0 -4.43,0.86333 -4.43,2.59v0c0,0.75333 0.25333,1.34333 0.76,1.77c0.5,0.42667 1.14667,0.64 1.94,0.64zM93.69667,235.48167l3.58,10.82l3.49,-10.82h2.47l-5.06,14.09h-1.83l-5.11,-14.09zM116.57667,249.57167h-2.52c-0.14,-0.28 -0.25333,-0.77667 -0.34,-1.49v0c-1.12,1.16667 -2.45667,1.75 -4.01,1.75v0c-1.39333,0 -2.53333,-0.39333 -3.42,-1.18c-0.89333,-0.78667 -1.34,-1.78333 -1.34,-2.99v0c0,-1.46667 0.56,-2.60667 1.68,-3.42c1.11333,-0.80667 2.68,-1.21 4.7,-1.21v0h2.35v-1.11c0,-0.84 -0.25333,-1.51 -0.76,-2.01c-0.5,-0.5 -1.24,-0.75 -2.22,-0.75v0c-0.86,0 -1.58333,0.21667 -2.17,0.65c-0.58,0.43333 -0.87,0.95667 -0.87,1.57v0h-2.42c0,-0.7 0.25,-1.37667 0.75,-2.03c0.5,-0.66 1.17667,-1.18 2.03,-1.56c0.85333,-0.38 1.79333,-0.57 2.82,-0.57v0c1.62,0 2.89,0.40667 3.81,1.22c0.92,0.80667 1.4,1.92333 1.44,3.35v0v6.48c0,1.29333 0.16333,2.32333 0.49,3.09v0zM110.05667,247.73167v0c0.75333,0 1.47,-0.19667 2.15,-0.59c0.67333,-0.38667 1.16333,-0.89333 1.47,-1.52v0v-2.89h-1.89c-2.95333,0 -4.43,0.86333 -4.43,2.59v0c0,0.75333 0.25333,1.34333 0.76,1.77c0.5,0.42667 1.14667,0.64 1.94,0.64zM125.82667,241.12167v0c-2.14667,-0.62 -3.70667,-1.38 -4.68,-2.28c-0.98,-0.89333 -1.47,-2 -1.47,-3.32v0c0,-1.49333 0.59667,-2.73 1.79,-3.71c1.19333,-0.97333 2.74667,-1.46 4.66,-1.46v0c1.3,0 2.46,0.25 3.48,0.75c1.02,0.50667 1.81,1.20333 2.37,2.09c0.56,0.88 0.84,1.84667 0.84,2.9v0h-2.51c0,-1.14667 -0.36667,-2.04667 -1.1,-2.7c-0.72667,-0.65333 -1.75333,-0.98 -3.08,-0.98v0c-1.23333,0 -2.19667,0.27 -2.89,0.81c-0.68667,0.54 -1.03,1.29333 -1.03,2.26v0c0,0.77333 0.32667,1.42667 0.98,1.96c0.65333,0.53333 1.77,1.02 3.35,1.46c1.57333,0.44667 2.80333,0.93667 3.69,1.47c0.89333,0.53333 1.55333,1.15667 1.98,1.87c0.43333,0.70667 0.65,1.54333 0.65,2.51v0c0,1.53333 -0.6,2.76333 -1.8,3.69c-1.2,0.92667 -2.8,1.39 -4.8,1.39v0c-1.30667,0 -2.52333,-0.25 -3.65,-0.75c-1.12667,-0.5 -1.99667,-1.18333 -2.61,-2.05c-0.61333,-0.86667 -0.92,-1.85333 -0.92,-2.96v0h2.51c0,1.14667 0.42333,2.05333 1.27,2.72c0.84667,0.66 1.98,0.99 3.4,0.99v0c1.32,0 2.33,-0.26667 3.03,-0.8c0.7,-0.54 1.05,-1.27333 1.05,-2.2c0,-0.93333 -0.32333,-1.65333 -0.97,-2.16c-0.65333,-0.50667 -1.83333,-1.00667 -3.54,-1.5zM141.32667,247.86167v0c0.86,0 1.61333,-0.26 2.26,-0.78c0.64,-0.52 0.99333,-1.17 1.06,-1.95v0h2.28c-0.04,0.80667 -0.31667,1.57333 -0.83,2.3c-0.51333,0.72667 -1.19667,1.31 -2.05,1.75c-0.85333,0.43333 -1.76,0.65 -2.72,0.65v0c-1.91333,0 -3.43667,-0.64 -4.57,-1.92c-1.13333,-1.28 -1.7,-3.03333 -1.7,-5.26v0v-0.4c0,-1.37333 0.25,-2.59333 0.75,-3.66c0.50667,-1.06667 1.23,-1.89667 2.17,-2.49c0.94,-0.58667 2.05333,-0.88 3.34,-0.88v0c1.58,0 2.89333,0.47333 3.94,1.42c1.04667,0.94667 1.60333,2.17333 1.67,3.68v0h-2.28c-0.06667,-0.91333 -0.41,-1.66 -1.03,-2.24c-0.62,-0.58667 -1.38667,-0.88 -2.3,-0.88v0c-1.22,0 -2.16667,0.44 -2.84,1.32c-0.67333,0.88 -1.01,2.15333 -1.01,3.82v0v0.46c0,1.62 0.33333,2.87 1,3.75c0.66667,0.87333 1.62,1.31 2.86,1.31zM156.44667,235.40167v2.24c-0.36667,-0.06 -0.76,-0.09 -1.18,-0.09v0c-1.58,0 -2.65333,0.67333 -3.22,2.02v0v10h-2.41v-14.09h2.35l0.03,1.63c0.79333,-1.26 1.91333,-1.89 3.36,-1.89v0c0.47333,0 0.83,0.06 1.07,0.18zM161.27667,235.48167v14.09h-2.41v-14.09zM158.67667,231.74167v0c0,-0.38667 0.12,-0.71667 0.36,-0.99c0.23333,-0.26667 0.58667,-0.4 1.06,-0.4c0.46667,0 0.82333,0.13333 1.07,0.4c0.24,0.27333 0.36,0.60333 0.36,0.99c0,0.39333 -0.12,0.72 -0.36,0.98c-0.24667,0.26 -0.60333,0.39 -1.07,0.39c-0.47333,0 -0.82667,-0.13 -1.06,-0.39c-0.24,-0.26 -0.36,-0.58667 -0.36,-0.98zM177.03667,242.46167v0.22c0,2.14 -0.49,3.86667 -1.47,5.18c-0.98667,1.31333 -2.31667,1.97 -3.99,1.97v0c-1.70667,0 -3.05,-0.54333 -4.03,-1.63v0v6.78h-2.41v-19.5h2.2l0.11,1.56c0.98667,-1.21333 2.35,-1.82 4.09,-1.82v0c1.69333,0 3.03333,0.63667 4.02,1.91c0.98667,1.28 1.48,3.05667 1.48,5.33zM174.62667,242.41167v0c0,-1.59333 -0.34,-2.85 -1.02,-3.77c-0.67333,-0.92 -1.6,-1.38 -2.78,-1.38v0c-1.46,0 -2.55333,0.64667 -3.28,1.94v0v6.73c0.72,1.28667 1.82,1.93 3.3,1.93v0c1.15333,0 2.07333,-0.45667 2.76,-1.37c0.68,-0.92 1.02,-2.28 1.02,-4.08zM180.95667,232.07167h2.41v3.41h2.63v1.86h-2.63v8.74c0,0.56 0.11667,0.98333 0.35,1.27c0.23333,0.28 0.63333,0.42 1.2,0.42v0c0.27333,0 0.65333,-0.05333 1.14,-0.16v0v1.96c-0.63333,0.17333 -1.25,0.26 -1.85,0.26v0c-1.07333,0 -1.88333,-0.32667 -2.43,-0.98c-0.54667,-0.65333 -0.82,-1.57667 -0.82,-2.77v0v-8.74h-2.57v-1.86h2.57z"></path></g></g></g></svg>