<svg xmlns="http://www.w3.org/2000/svg" xmlns:xlink="http://www.w3.org/1999/xlink" viewBox="0,0,256,256" width="240px" height="240px"><g transform="translate(17.92,17.92) scale(0.86,0.86)"><g fill="none" fill-rule="nonzero" stroke="none" stroke-width="1" stroke-linecap="butt" stroke-linejoin="miter" stroke-miterlimit="10" stroke-dasharray="" stroke-dashoffset="0" font-family="none" font-weight="none" font-size="none" text-anchor="none" style="mix-blend-mode: normal"><g transform="scale(5.33333,5.33333)"><path d="M23.65,24.898c-0.998,-1.609 -1.722,-2.943 -2.725,-5.455c-1.696,-4.243 10.315,-8.077 5.445,-15.444c2.111,5.089 -7.577,8.235 -8.477,12.473c-0.823,3.898 5.752,8.426 5.757,8.426z" fill="#f44336"></path><path d="M23.878,17.27c-0.192,2.516 2.229,3.857 2.299,5.695c0.056,1.496 -1.447,2.743 -1.447,2.743c0,0 2.728,-0.536 3.579,-2.818c0.945,-2.534 -1.834,-4.269 -1.548,-6.298c0.267,-1.938 6.031,-5.543 6.031,-5.543c0,0 -8.481,0.562 -8.914,6.221z" fill="#f44336"></path><g fill="#1565c0"><path d="M32.084,25.055c1.754,-0.394 3.233,0.723 3.233,2.01c0,2.901 -4.021,5.643 -4.021,5.643c0,0 6.225,-0.742 6.225,-5.505c0,-3.15 -3.057,-3.937 -5.437,-2.148zM29.129,27.395c0,0 1.941,-1.383 2.458,-1.902c-4.763,1.011 -15.638,1.147 -15.638,0.269c0,-0.809 3.507,-1.638 3.507,-1.638c0,0 -7.773,-0.112 -7.773,2.181c0,2.39 10.175,2.561 17.446,1.09z"></path><path d="M27.935,29.571c-4.509,1.499 -12.814,1.02 -10.354,-0.993c-1.198,0 -2.974,0.963 -2.974,1.889c0,1.857 8.982,3.291 15.63,0.572z"></path><path d="M18.686,32.739c-1.636,0 -2.695,1.054 -2.695,1.822c0,2.391 9.76,2.632 13.627,0.205l-2.458,-1.632c-2.889,1.27 -10.146,1.445 -8.474,-0.395z"></path><path d="M36.281,36.632c0,-0.936 -1.055,-1.377 -1.433,-1.588c2.228,5.373 -22.317,4.956 -22.317,1.784c0,-0.721 1.807,-1.427 3.477,-1.093l-1.42,-0.839c-3.328,-0.522 -5.588,0.941 -5.588,2.121c0,5.503 27.281,5.238 27.281,-0.385z"></path><path d="M39,38.604c-4.146,4.095 -14.659,5.587 -25.231,3.057c10.572,4.503 25.181,1.967 25.231,-3.057z"></path></g></g></g><g fill="#000000" fill-rule="nonzero" stroke="none" stroke-width="1" stroke-linecap="butt" stroke-linejoin="miter" stroke-miterlimit="10" stroke-dasharray="" stroke-dashoffset="0" font-family="none" font-weight="none" font-size="none" text-anchor="none" style="mix-blend-mode: normal"><g><path d="M108.8,255.05v-13.46h2.52v13.42c0,1.81333 -0.54667,3.23333 -1.64,4.26c-1.08667,1.02667 -2.53667,1.54 -4.35,1.54v0c-1.88667,0 -3.35333,-0.48333 -4.4,-1.45c-1.05333,-0.96 -1.58,-2.31 -1.58,-4.05v0h2.5c0,1.08667 0.29667,1.93333 0.89,2.54c0.59333,0.60667 1.45667,0.91 2.59,0.91v0c1.03333,0 1.86667,-0.32333 2.5,-0.97c0.64,-0.65333 0.96333,-1.56667 0.97,-2.74zM126.42,260.55h-2.53c-0.13333,-0.28 -0.24333,-0.77667 -0.33,-1.49v0c-1.12,1.16667 -2.45667,1.75 -4.01,1.75v0c-1.39333,0 -2.53333,-0.39333 -3.42,-1.18c-0.89333,-0.78667 -1.34,-1.78333 -1.34,-2.99v0c0,-1.46667 0.56,-2.60667 1.68,-3.42c1.11333,-0.80667 2.68,-1.21 4.7,-1.21v0h2.35v-1.11c0,-0.84 -0.25333,-1.51 -0.76,-2.01c-0.5,-0.5 -1.24,-0.75 -2.22,-0.75v0c-0.86,0 -1.58333,0.21667 -2.17,0.65c-0.58,0.43333 -0.87,0.95667 -0.87,1.57v0h-2.42c0,-0.7 0.25,-1.37667 0.75,-2.03c0.5,-0.66 1.17667,-1.18 2.03,-1.56c0.85333,-0.38 1.79333,-0.57 2.82,-0.57v0c1.62,0 2.89,0.40667 3.81,1.22c0.92,0.80667 1.4,1.92333 1.44,3.35v0v6.48c0,1.29333 0.16333,2.32333 0.49,3.09v0zM119.9,258.71v0c0.75333,0 1.47,-0.19667 2.15,-0.59c0.67333,-0.38667 1.16333,-0.89333 1.47,-1.52v0v-2.89h-1.89c-2.95333,0 -4.43,0.86333 -4.43,2.59v0c0,0.75333 0.25333,1.34333 0.76,1.77c0.5,0.42667 1.14667,0.64 1.94,0.64zM130.57,246.46l3.58,10.82l3.49,-10.82h2.47l-5.06,14.09h-1.83l-5.11,-14.09zM153.45,260.55h-2.52c-0.14,-0.28 -0.25333,-0.77667 -0.34,-1.49v0c-1.12,1.16667 -2.45667,1.75 -4.01,1.75v0c-1.39333,0 -2.53333,-0.39333 -3.42,-1.18c-0.89333,-0.78667 -1.34,-1.78333 -1.34,-2.99v0c0,-1.46667 0.56,-2.60667 1.68,-3.42c1.11333,-0.80667 2.68,-1.21 4.7,-1.21v0h2.35v-1.11c0,-0.84 -0.25333,-1.51 -0.76,-2.01c-0.5,-0.5 -1.24,-0.75 -2.22,-0.75v0c-0.86,0 -1.58333,0.21667 -2.17,0.65c-0.58,0.43333 -0.87,0.95667 -0.87,1.57v0h-2.42c0,-0.7 0.25,-1.37667 0.75,-2.03c0.5,-0.66 1.17667,-1.18 2.03,-1.56c0.85333,-0.38 1.79333,-0.57 2.82,-0.57v0c1.62,0 2.89,0.40667 3.81,1.22c0.92,0.80667 1.4,1.92333 1.44,3.35v0v6.48c0,1.29333 0.16333,2.32333 0.49,3.09v0zM146.93,258.71v0c0.75333,0 1.47,-0.19667 2.15,-0.59c0.67333,-0.38667 1.16333,-0.89333 1.47,-1.52v0v-2.89h-1.89c-2.95333,0 -4.43,0.86333 -4.43,2.59v0c0,0.75333 0.25333,1.34333 0.76,1.77c0.5,0.42667 1.14667,0.64 1.94,0.64z"></path></g></g></g></svg>