<svg xmlns="http://www.w3.org/2000/svg" xmlns:xlink="http://www.w3.org/1999/xlink" viewBox="0,0,256,256" width="240px" height="240px"><g transform="translate(6.4,6.4) scale(0.95,0.95)"><g fill="none" fill-rule="nonzero" stroke="none" stroke-width="none" stroke-linecap="butt" stroke-linejoin="none" stroke-miterlimit="10" stroke-dasharray="" stroke-dashoffset="0" font-family="none" font-weight="none" font-size="none" text-anchor="none" style="mix-blend-mode: normal"><path transform="scale(5.33333,5.33333)" d="M4,24c0,-11.04569 8.95431,-20 20,-20c11.04569,0 20,8.95431 20,20c0,11.04569 -8.95431,20 -20,20c-11.04569,0 -20,-8.95431 -20,-20z" id="strokeMainSVG" fill="#dddddd" stroke="#dddddd" stroke-width="6" stroke-linejoin="round"></path><g transform="scale(5.33333,5.33333)" stroke="none" stroke-width="1" stroke-linejoin="miter"><circle cx="24" cy="24" r="20" fill="#216287"></circle><circle cx="24" cy="24" r="18" fill="#e87912"></circle><path d="M29.69,31.95c0,4.35 -3.09,7.98 -7.19,8.82l-0.55,0.1c-8.42,-1 -14.95,-8.17 -14.95,-16.87c0,-9.39 7.61,-17 17,-17c0.17,0 0.35,0 0.52,0.01c-3.5,1.23 -6.02,4.56 -6.02,8.49c0,1.49 0.36,2.9 1.01,4.14c0.86,1.66 2.3,2.94 3.97,3.78l1.22,0.61c1.67,0.84 3.12,2.12 3.98,3.78c0.64,1.24 1.01,2.65 1.01,4.14z" fill="#216287"></path><path d="M24,6c-9.941,0 -18,8.059 -18,18c0,8.671 6.132,15.906 14.295,17.614l0.012,0.063l0.159,-0.029c1.143,0.228 2.324,0.352 3.534,0.352c9.941,0 18,-8.059 18,-18c0,-9.941 -8.059,-18 -18,-18zM8,24c0,-7.935 5.813,-14.521 13.4,-15.769c-2.091,1.763 -3.4,4.395 -3.4,7.269c0,1.519 0.367,3.029 1.062,4.368c0.865,1.668 2.316,3.051 4.197,3.996l1.219,0.613c1.691,0.852 2.991,2.084 3.759,3.564c0.63,1.214 0.949,2.528 0.949,3.907c0,3.645 -2.35,6.857 -5.711,8.024c-8.578,-0.279 -15.475,-7.327 -15.475,-15.972zM25.905,39.876c2.599,-1.721 4.281,-4.668 4.281,-7.927c0,-1.52 -0.367,-3.029 -1.062,-4.368c-0.865,-1.668 -2.316,-3.051 -4.197,-3.996l-1.219,-0.613c-1.692,-0.852 -2.991,-2.083 -3.759,-3.564c-0.63,-1.215 -0.949,-2.529 -0.949,-3.908c0,-3.173 1.781,-6.017 4.464,-7.473c0.179,-0.006 0.355,-0.027 0.536,-0.027c8.822,0 16,7.178 16,16c0,8.177 -6.169,14.93 -14.095,15.876z" fill="#ffffff"></path><path d="M38.458,27.528c-0.776,-0.927 -2.018,-1.829 -2.809,-3.135c-0.111,-0.184 -0.053,-0.407 0.135,-0.507c1.015,-0.544 1.194,-0.445 2.216,-0.886c-1,-1 -2.037,-1.36 -3.681,-1.774c-0.322,-0.067 -0.507,-0.337 -0.561,-0.634c-0.088,-0.323 -0.275,-0.87 -0.471,-1.307c-1.421,-2.871 -3.192,-6.625 -6.786,-6.907c-0.237,-0.003 -0.463,-0.099 -0.62,-0.257c-0.453,-0.432 -1.087,-0.967 -1.67,-1.055c-0.115,0.011 -0.057,-0.028 -0.146,0.054c-0.233,0.273 -0.186,0.283 -0.026,0.63c0.216,0.369 0.628,0.791 1.033,1.208c0.411,0.531 0.126,1.308 0.396,1.904c0.111,0.423 0.344,0.923 0.603,1.229c0.125,0.161 0.163,0.365 0.124,0.55c-0.288,1.377 -0.491,2.862 -0.212,4.241c0.006,0.147 0.15,0.202 0.256,0.149c0.033,-0.026 0.032,-0.008 0.16,-0.233c0.157,-0.35 1.276,-2.491 1.601,-1.798c0.473,1.538 1.13,4.53 2.522,5.455c0.059,0.025 0.013,0.122 -0.045,0.089c-1.454,-0.751 -2.631,-2.682 -2.978,-3.984c-0.27,0.023 -0.512,0.242 -0.648,0.493c-0.205,0.719 -1.26,0.756 -1.449,-0.013c-0.076,-0.298 -0.138,-0.6 -0.167,-0.905c-0.111,-1.11 -0.041,-2.753 0.211,-3.582c-0.704,-0.76 -1.098,-2.227 -1.005,-2.995c-0.413,-0.418 -0.847,-0.829 -1.17,-1.344c-0.608,-0.774 -0.076,-2.132 0.967,-2.083c0.924,0.077 1.672,0.707 2.33,1.301c0.729,-0.065 2.173,0.444 2.982,0.991c1.834,1.191 2.799,3.236 3.847,5.078c0.409,0.836 1.142,2.25 1.123,2.924c1.866,0.578 3.975,1.277 5.039,3.046c0.019,0.035 0.001,0.08 -0.038,0.091l-2.9,0.91l1.921,3c0.033,0.05 -0.047,0.112 -0.084,0.056z" fill="#ffffff"></path><path d="M27.046,13.688l0.833,1.189c0,0.001 0.951,-1.347 -0.833,-1.189z" fill="#ffffff"></path><g fill="#ffffff"><path d="M9.762,20.071c0.776,0.927 2.018,1.829 2.809,3.135c0.111,0.184 0.053,0.407 -0.135,0.507c-1.015,0.543 -1.193,0.444 -2.215,0.886c1,1 2.037,1.36 3.681,1.774c0.322,0.067 0.507,0.337 0.561,0.634c0.088,0.323 0.275,0.87 0.471,1.307c1.421,2.871 3.192,6.625 6.786,6.907c0.237,0.003 0.463,0.099 0.62,0.257c0.453,0.432 1.087,0.967 1.67,1.055c0.115,-0.011 0.057,0.028 0.146,-0.054c0.233,-0.273 0.186,-0.283 0.026,-0.63c-0.216,-0.369 -0.628,-0.791 -1.033,-1.208c-0.411,-0.531 -0.126,-1.308 -0.396,-1.904c-0.111,-0.423 -0.344,-0.923 -0.603,-1.229c-0.125,-0.161 -0.163,-0.365 -0.124,-0.55c0.288,-1.377 0.491,-2.862 0.212,-4.241c-0.006,-0.147 -0.15,-0.202 -0.256,-0.149c-0.033,0.026 -0.032,0.008 -0.16,0.233c-0.158,0.348 -1.277,2.49 -1.602,1.796c-0.473,-1.538 -1.13,-4.53 -2.522,-5.455c-0.059,-0.025 -0.013,-0.122 0.045,-0.089c1.454,0.751 2.631,2.682 2.978,3.984c0.27,-0.023 0.512,-0.242 0.648,-0.493c0.205,-0.719 1.26,-0.756 1.449,0.013c0.076,0.298 0.138,0.6 0.167,0.905c0.111,1.11 0.041,2.753 -0.211,3.582c0.704,0.76 1.098,2.227 1.005,2.995c0.413,0.418 0.847,0.829 1.17,1.344c0.608,0.774 0.076,2.132 -0.967,2.083c-0.924,-0.077 -1.672,-0.707 -2.33,-1.301c-0.729,0.065 -2.173,-0.444 -2.982,-0.991c-1.834,-1.191 -2.799,-3.236 -3.847,-5.078c-0.409,-0.836 -1.142,-2.25 -1.123,-2.924c-1.866,-0.578 -3.975,-1.277 -5.039,-3.046c-0.019,-0.035 -0.001,-0.08 0.038,-0.091l2.9,-0.91l-1.921,-3c-0.033,-0.048 0.047,-0.109 0.084,-0.054z"></path><path d="M21.174,33.911l-0.833,-1.189c0.001,0 -0.951,1.348 0.833,1.189z"></path></g></g></g><g fill="none" fill-rule="nonzero" stroke="none" stroke-width="none" stroke-linecap="butt" stroke-linejoin="none" stroke-miterlimit="10" stroke-dasharray="" stroke-dashoffset="0" font-family="none" font-weight="none" font-size="none" text-anchor="none" style="mix-blend-mode: normal"><path d="M100.88833,241.76h2.58l4.96,12.37l4.96,-12.37h2.59v15.16h-2v-5.9l0.19,-6.38l-4.98,12.28h-1.53l-4.97,-12.25l0.2,6.35v5.9h-2zM120.08833,245.65l2.81,8.45l2.63,-8.45h2.06l-4.53,13.01c-0.7,1.88 -1.81667,2.82 -3.35,2.82l-0.36,-0.04l-0.72,-0.13v-1.56l0.52,0.04c0.65333,0 1.16333,-0.13333 1.53,-0.4c0.36,-0.26 0.66,-0.74333 0.9,-1.45l0.43,-1.14l-4.03,-11.15zM134.07833,250.16c-1.71333,-0.49333 -2.96333,-1.09667 -3.75,-1.81c-0.78,-0.72 -1.17,-1.61 -1.17,-2.67c0,-1.19333 0.47667,-2.18 1.43,-2.96c0.96,-0.78 2.20333,-1.17 3.73,-1.17c1.04,0 1.96667,0.2 2.78,0.6c0.82,0.40667 1.45333,0.96333 1.9,1.67c0.44667,0.70667 0.67,1.48 0.67,2.32h-2.01c0,-0.91333 -0.29,-1.63333 -0.87,-2.16c-0.58667,-0.52667 -1.41,-0.79 -2.47,-0.79c-0.98667,0 -1.75667,0.22 -2.31,0.66c-0.55333,0.43333 -0.83,1.03333 -0.83,1.8c0,0.62 0.26333,1.14333 0.79,1.57c0.52667,0.42667 1.42,0.81667 2.68,1.17c1.26,0.35333 2.24333,0.74333 2.95,1.17c0.71333,0.42667 1.24333,0.92667 1.59,1.5c0.34,0.56667 0.51,1.23667 0.51,2.01c0,1.22667 -0.47667,2.21 -1.43,2.95c-0.96,0.74 -2.24333,1.11 -3.85,1.11c-1.04,0 -2.01,-0.2 -2.91,-0.6c-0.90667,-0.4 -1.60333,-0.94667 -2.09,-1.64c-0.49333,-0.69333 -0.74,-1.48 -0.74,-2.36h2.01c0,0.91333 0.34,1.63667 1.02,2.17c0.67333,0.53333 1.57667,0.8 2.71,0.8c1.06,0 1.87,-0.21667 2.43,-0.65c0.56,-0.43333 0.84,-1.02 0.84,-1.76c0,-0.74 -0.26,-1.31333 -0.78,-1.72c-0.52,-0.40667 -1.46333,-0.81 -2.83,-1.21zM141.48833,251.19c0,-1.76667 0.40667,-3.16667 1.22,-4.2c0.81333,-1.03333 1.90333,-1.55 3.27,-1.55c1.33333,0 2.38667,0.45 3.16,1.35l0.08,-1.14h1.77v15.61h-1.92v-5.38c-0.78,0.83333 -1.81667,1.25 -3.11,1.25c-1.36,0 -2.44333,-0.53 -3.25,-1.59c-0.81333,-1.06 -1.22,-2.46333 -1.22,-4.21zM143.41833,251.41c0,1.29333 0.27333,2.30667 0.82,3.04c0.54667,0.74 1.28,1.11 2.2,1.11c1.14667,0 2.02333,-0.50667 2.63,-1.52v-5.52c-0.61333,-0.99333 -1.48333,-1.49 -2.61,-1.49c-0.92667,0 -1.66667,0.37 -2.22,1.11c-0.54667,0.74 -0.82,1.83 -0.82,3.27zM156.17833,240.92v16h-1.92v-16z" id="strokeMainSVG" fill="#dddddd" stroke="#dddddd" stroke-width="21.33333" stroke-linejoin="round"></path><g fill="#000000" stroke="none" stroke-width="1" stroke-linejoin="miter"><path d="M100.88833,241.76h2.58l4.96,12.37l4.96,-12.37h2.59v15.16h-2v-5.9l0.19,-6.38l-4.98,12.28h-1.53l-4.97,-12.25l0.2,6.35v5.9h-2zM120.08833,245.65l2.81,8.45l2.63,-8.45h2.06l-4.53,13.01c-0.7,1.88 -1.81667,2.82 -3.35,2.82v0l-0.36,-0.04l-0.72,-0.13v-1.56l0.52,0.04c0.65333,0 1.16333,-0.13333 1.53,-0.4c0.36,-0.26 0.66,-0.74333 0.9,-1.45v0l0.43,-1.14l-4.03,-11.15zM134.07833,250.16v0c-1.71333,-0.49333 -2.96333,-1.09667 -3.75,-1.81c-0.78,-0.72 -1.17,-1.61 -1.17,-2.67v0c0,-1.19333 0.47667,-2.18 1.43,-2.96c0.96,-0.78 2.20333,-1.17 3.73,-1.17v0c1.04,0 1.96667,0.2 2.78,0.6c0.82,0.40667 1.45333,0.96333 1.9,1.67c0.44667,0.70667 0.67,1.48 0.67,2.32v0h-2.01c0,-0.91333 -0.29,-1.63333 -0.87,-2.16c-0.58667,-0.52667 -1.41,-0.79 -2.47,-0.79v0c-0.98667,0 -1.75667,0.22 -2.31,0.66c-0.55333,0.43333 -0.83,1.03333 -0.83,1.8v0c0,0.62 0.26333,1.14333 0.79,1.57c0.52667,0.42667 1.42,0.81667 2.68,1.17c1.26,0.35333 2.24333,0.74333 2.95,1.17c0.71333,0.42667 1.24333,0.92667 1.59,1.5c0.34,0.56667 0.51,1.23667 0.51,2.01v0c0,1.22667 -0.47667,2.21 -1.43,2.95c-0.96,0.74 -2.24333,1.11 -3.85,1.11v0c-1.04,0 -2.01,-0.2 -2.91,-0.6c-0.90667,-0.4 -1.60333,-0.94667 -2.09,-1.64c-0.49333,-0.69333 -0.74,-1.48 -0.74,-2.36v0h2.01c0,0.91333 0.34,1.63667 1.02,2.17c0.67333,0.53333 1.57667,0.8 2.71,0.8v0c1.06,0 1.87,-0.21667 2.43,-0.65c0.56,-0.43333 0.84,-1.02 0.84,-1.76c0,-0.74 -0.26,-1.31333 -0.78,-1.72c-0.52,-0.40667 -1.46333,-0.81 -2.83,-1.21zM141.48833,251.33v-0.14c0,-1.76667 0.40667,-3.16667 1.22,-4.2c0.81333,-1.03333 1.90333,-1.55 3.27,-1.55v0c1.33333,0 2.38667,0.45 3.16,1.35v0l0.08,-1.14h1.77v15.61h-1.92v-5.38c-0.78,0.83333 -1.81667,1.25 -3.11,1.25v0c-1.36,0 -2.44333,-0.53 -3.25,-1.59c-0.81333,-1.06 -1.22,-2.46333 -1.22,-4.21zM143.41833,251.41v0c0,1.29333 0.27333,2.30667 0.82,3.04c0.54667,0.74 1.28,1.11 2.2,1.11v0c1.14667,0 2.02333,-0.50667 2.63,-1.52v0v-5.52c-0.61333,-0.99333 -1.48333,-1.49 -2.61,-1.49v0c-0.92667,0 -1.66667,0.37 -2.22,1.11c-0.54667,0.74 -0.82,1.83 -0.82,3.27zM156.17833,240.92v16h-1.92v-16z"></path></g></g></g></svg>