<svg xmlns="http://www.w3.org/2000/svg" xmlns:xlink="http://www.w3.org/1999/xlink" viewBox="0,0,256,256" width="240px" height="240px"><g fill="none" fill-rule="nonzero" stroke="none" stroke-width="1" stroke-linecap="butt" stroke-linejoin="miter" stroke-miterlimit="10" stroke-dasharray="" stroke-dashoffset="0" font-family="none" font-weight="none" font-size="none" text-anchor="none" style="mix-blend-mode: normal"><g transform="scale(5.33333,5.33333)"><path d="M17.204,19.122l-4.907,2.715c-0.184,0.101 -0.297,0.289 -0.297,0.492v5.433c0,0.203 0.113,0.39 0.297,0.492l4.908,2.717c0.183,0.101 0.41,0.101 0.593,0l4.907,-2.717c0.182,-0.102 0.295,-0.289 0.295,-0.492v-5.433c0,-0.203 -0.113,-0.39 -0.297,-0.492l-4.906,-2.715c-0.092,-0.051 -0.195,-0.076 -0.297,-0.076c-0.103,0 -0.205,0.025 -0.297,0.076M42.451,24.013l-0.818,0.452c-0.031,0.017 -0.049,0.048 -0.049,0.082v0.906c0,0.034 0.019,0.065 0.049,0.082l0.818,0.453c0.031,0.017 0.068,0.017 0.099,0l0.818,-0.453c0.03,-0.017 0.049,-0.048 0.049,-0.082v-0.906c0,-0.034 -0.019,-0.065 -0.05,-0.082l-0.818,-0.452c-0.015,-0.009 -0.032,-0.013 -0.049,-0.013c-0.017,0 -0.034,0.004 -0.049,0.013" fill="#388e3c"></path><path d="M35.751,13.364l-2.389,-1.333c-0.075,-0.042 -0.167,-0.041 -0.241,0.003c-0.074,0.044 -0.12,0.123 -0.12,0.209l-0.001,8.052l-2.203,-1.219c-0.092,-0.051 -0.195,-0.076 -0.297,-0.076c-0.102,0 -0.205,0.025 -0.297,0.076h0.001l-4.907,2.715c-0.184,0.101 -0.297,0.289 -0.297,0.491v5.433c0,0.203 0.113,0.39 0.297,0.492l4.908,2.717c0.183,0.101 0.41,0.101 0.593,0l4.907,-2.717c0.182,-0.101 0.295,-0.289 0.295,-0.492v-13.927c0,-0.176 -0.096,-0.338 -0.249,-0.424zM32.866,26.458l-2.23,1.235c-0.083,0.046 -0.186,0.046 -0.269,0l-2.231,-1.235c-0.085,-0.046 -0.136,-0.132 -0.136,-0.224v-2.47c0,-0.092 0.051,-0.177 0.135,-0.224l2.231,-1.234h-0.001c0.042,-0.023 0.088,-0.034 0.135,-0.034c0.047,0 0.093,0.012 0.135,0.034l2.23,1.234c0.084,0.047 0.135,0.133 0.135,0.225v2.47c0,0.091 -0.051,0.177 -0.134,0.223z" fill="#37474f"></path><path d="M17.204,19.122l-5.204,8.64c0,0.203 0.113,0.39 0.297,0.492l4.908,2.717c0.183,0.101 0.41,0.101 0.593,0l5.202,-8.642c0,-0.203 -0.113,-0.39 -0.297,-0.492l-4.906,-2.715c-0.092,-0.051 -0.195,-0.076 -0.297,-0.076c-0.103,0 -0.205,0.025 -0.297,0.076" fill="#2e7d32"></path><path d="M17.204,19.122l-4.907,2.715c-0.184,0.101 -0.297,0.289 -0.297,0.492l5.204,8.642c0.183,0.101 0.41,0.101 0.593,0l4.907,-2.717c0.183,-0.102 0.296,-0.289 0.296,-0.492l-5.203,-8.64c-0.092,-0.051 -0.195,-0.076 -0.297,-0.076c-0.103,0 -0.205,0.025 -0.297,0.076" fill="#4caf50"></path><path d="M47.703,21.791l-4.906,-2.715c-0.092,-0.051 -0.195,-0.076 -0.297,-0.076c-0.102,0 -0.205,0.025 -0.297,0.076h0.001l-4.907,2.715c-0.183,0.101 -0.297,0.293 -0.297,0.503v5.411c0,0.209 0.114,0.402 0.297,0.503l4.908,2.717c0.184,0.102 0.409,0.102 0.593,0l2.263,-1.253c0.207,-0.115 0.206,-0.412 -0.002,-0.526l-4.924,-2.687c-0.083,-0.047 -0.135,-0.134 -0.135,-0.228v-2.466c0,-0.092 0.05,-0.177 0.13,-0.221l2.235,-1.236h-0.001c0.042,-0.023 0.088,-0.034 0.135,-0.034c0.047,0 0.093,0.012 0.135,0.034l2.235,1.237c0.08,0.044 0.13,0.129 0.13,0.221v2.012c0,0.086 0.046,0.166 0.121,0.209c0.075,0.042 0.167,0.042 0.242,-0.001l2.398,-1.393c0.148,-0.086 0.24,-0.245 0.24,-0.417v-1.88c0,-0.211 -0.114,-0.404 -0.297,-0.505zM10.703,21.791l-4.906,-2.715c-0.092,-0.051 -0.195,-0.076 -0.297,-0.076c-0.102,0 -0.205,0.025 -0.297,0.076h0.001l-4.907,2.715c-0.183,0.101 -0.297,0.293 -0.297,0.503v7.465c0,0.086 0.046,0.166 0.121,0.209c0.075,0.042 0.167,0.042 0.242,-0.001l2.398,-1.393c0.148,-0.086 0.239,-0.245 0.239,-0.417v-4.393c0,-0.092 0.05,-0.177 0.13,-0.221l2.235,-1.236v0c0.042,-0.023 0.088,-0.034 0.135,-0.034c0.047,0 0.093,0.012 0.135,0.034l2.235,1.237c0.08,0.044 0.13,0.129 0.13,0.221v4.393c0,0.172 0.091,0.331 0.24,0.417l2.398,1.393c0.075,0.043 0.167,0.043 0.242,0.001c0.074,-0.044 0.12,-0.124 0.12,-0.21v-7.464c0,-0.21 -0.114,-0.403 -0.297,-0.504z" fill="#37474f"></path></g></g><g fill="#000000" fill-rule="nonzero" stroke="none" stroke-width="1" stroke-linecap="butt" stroke-linejoin="miter" stroke-miterlimit="10" stroke-dasharray="" stroke-dashoffset="0" font-family="none" font-weight="none" font-size="none" text-anchor="none" style="mix-blend-mode: normal"><g><path d="M67.99833,185.59833h2.28l0.08,1.77c1.07333,-1.35333 2.48,-2.03 4.22,-2.03v0c2.97333,0 4.47333,1.68 4.5,5.04v0v9.31h-2.41v-9.33c-0.00667,-1.01333 -0.23667,-1.76333 -0.69,-2.25c-0.46,-0.48667 -1.17,-0.73 -2.13,-0.73v0c-0.78,0 -1.46667,0.21 -2.06,0.63c-0.58667,0.41333 -1.04667,0.96 -1.38,1.64v0v10.04h-2.41zM82.07833,192.67833v-0.17c0,-1.38 0.27,-2.62 0.81,-3.72c0.54667,-1.10667 1.30333,-1.95667 2.27,-2.55c0.96667,-0.6 2.07,-0.9 3.31,-0.9v0c1.92,0 3.47333,0.66333 4.66,1.99c1.18,1.32667 1.77,3.09333 1.77,5.3v0v0.17c0,1.37333 -0.26,2.60333 -0.78,3.69c-0.52667,1.08667 -1.28,1.93667 -2.26,2.55c-0.97333,0.60667 -2.09333,0.91 -3.36,0.91v0c-1.91333,0 -3.46,-0.66667 -4.64,-2c-1.18667,-1.32667 -1.78,-3.08333 -1.78,-5.27zM84.49833,192.79833v0c0,1.56 0.36333,2.81333 1.09,3.76c0.72,0.94667 1.69,1.42 2.91,1.42v0c1.22,0 2.19,-0.48 2.91,-1.44c0.72667,-0.96 1.09,-2.30333 1.09,-4.03v0c0,-1.54667 -0.37,-2.79667 -1.11,-3.75c-0.73333,-0.96 -1.70667,-1.44 -2.92,-1.44v0c-1.18667,0 -2.14667,0.47333 -2.88,1.42c-0.72667,0.94667 -1.09,2.3 -1.09,4.06zM97.33833,192.70833v-0.18c0,-2.16667 0.51333,-3.90667 1.54,-5.22c1.02,-1.31333 2.36,-1.97 4.02,-1.97v0c1.64667,0 2.95333,0.56333 3.92,1.69v0v-7.34h2.41v20h-2.22l-0.11,-1.51c-0.96667,1.18 -2.31,1.77 -4.03,1.77v0c-1.63333,0 -2.96333,-0.67 -3.99,-2.01c-1.02667,-1.33333 -1.54,-3.07667 -1.54,-5.23zM99.74833,192.79833v0c0,1.59333 0.33,2.84333 0.99,3.75c0.66,0.9 1.57,1.35 2.73,1.35v0c1.52667,0 2.64333,-0.68333 3.35,-2.05v0v-6.48c-0.72,-1.32667 -1.82667,-1.99 -3.32,-1.99v0c-1.18,0 -2.1,0.45667 -2.76,1.37c-0.66,0.91333 -0.99,2.26333 -0.99,4.05zM118.80833,199.94833v0c-1.90667,0 -3.46,-0.62667 -4.66,-1.88c-1.2,-1.26 -1.8,-2.94 -1.8,-5.04v0v-0.44c0,-1.4 0.26667,-2.64667 0.8,-3.74c0.53333,-1.1 1.28,-1.96 2.24,-2.58c0.96,-0.62 2,-0.93 3.12,-0.93v0c1.83333,0 3.25667,0.60333 4.27,1.81c1.02,1.20667 1.53,2.93333 1.53,5.18v0v1h-9.55c0.03333,1.39333 0.44,2.51667 1.22,3.37c0.77333,0.85333 1.76,1.28 2.96,1.28v0c0.85333,0 1.57333,-0.17333 2.16,-0.52c0.59333,-0.34667 1.11,-0.80667 1.55,-1.38v0l1.47,1.15c-1.18,1.81333 -2.95,2.72 -5.31,2.72zM118.50833,187.31833v0c-0.97333,0 -1.79,0.35333 -2.45,1.06c-0.66,0.70667 -1.06667,1.69667 -1.22,2.97v0h7.06v-0.18c-0.07333,-1.22 -0.40333,-2.16667 -0.99,-2.84c-0.59333,-0.67333 -1.39333,-1.01 -2.4,-1.01zM133.76833,185.59833h2.41v15.71c0,2.71333 -1.22667,4.07 -3.68,4.07v0c-0.53333,0 -1.02667,-0.08 -1.48,-0.24v0v-1.92c0.28,0.06667 0.64667,0.1 1.1,0.1v0c0.53333,0 0.94333,-0.14667 1.23,-0.44c0.28,-0.28667 0.42,-0.79 0.42,-1.51v0zM133.51833,181.85833v0c0,-0.38 0.12,-0.70667 0.36,-0.98c0.24,-0.27333 0.59,-0.41 1.05,-0.41v0c0.46667,0 0.82333,0.13333 1.07,0.4c0.24,0.27333 0.36,0.60333 0.36,0.99c0,0.39333 -0.12,0.72 -0.36,0.98c-0.24667,0.26 -0.60333,0.39 -1.07,0.39c-0.46667,0 -0.81667,-0.13 -1.05,-0.39c-0.24,-0.26 -0.36,-0.58667 -0.36,-0.98zM148.25833,195.94833v0c0,-0.65333 -0.24333,-1.16 -0.73,-1.52c-0.49333,-0.36 -1.35,-0.67 -2.57,-0.93c-1.22,-0.26 -2.18667,-0.57333 -2.9,-0.94c-0.72,-0.36 -1.25,-0.79333 -1.59,-1.3c-0.34,-0.5 -0.51,-1.09667 -0.51,-1.79v0c0,-1.16 0.48667,-2.13667 1.46,-2.93c0.98,-0.8 2.22667,-1.2 3.74,-1.2v0c1.6,0 2.89667,0.41 3.89,1.23c0.99333,0.82667 1.49,1.88333 1.49,3.17v0h-2.42c0,-0.66 -0.28,-1.23 -0.84,-1.71c-0.56,-0.47333 -1.26667,-0.71 -2.12,-0.71v0c-0.87333,0 -1.55667,0.19 -2.05,0.57c-0.5,0.38 -0.75,0.88 -0.75,1.5v0c0,0.58 0.23,1.01667 0.69,1.31c0.46667,0.3 1.3,0.58333 2.5,0.85c1.2,0.26667 2.17333,0.58667 2.92,0.96c0.74667,0.37333 1.3,0.82333 1.66,1.35c0.36,0.52667 0.54,1.16667 0.54,1.92v0c0,1.26 -0.50333,2.27 -1.51,3.03c-1.00667,0.76 -2.31333,1.14 -3.92,1.14v0c-1.12667,0 -2.12333,-0.2 -2.99,-0.6c-0.86667,-0.4 -1.54667,-0.96 -2.04,-1.68c-0.49333,-0.71333 -0.74,-1.48667 -0.74,-2.32v0h2.41c0.04667,0.80667 0.37,1.44667 0.97,1.92c0.60667,0.47333 1.40333,0.71 2.39,0.71v0c0.91333,0 1.64667,-0.18333 2.2,-0.55c0.54667,-0.37333 0.82,-0.86667 0.82,-1.48z"></path></g></g></svg>