<svg xmlns="http://www.w3.org/2000/svg" xmlns:xlink="http://www.w3.org/1999/xlink" viewBox="0,0,256,256" width="240px" height="240px"><g transform="translate(23.04,23.04) scale(0.82,0.82)"><g fill="none" fill-rule="nonzero" stroke="none" stroke-width="none" stroke-linecap="butt" stroke-linejoin="none" stroke-miterlimit="10" stroke-dasharray="" stroke-dashoffset="0" font-family="none" font-weight="none" font-size="none" text-anchor="none" style="mix-blend-mode: normal"><path transform="scale(5.33333,5.33333)" d="M44,24c0,11.046 -8.954,20 -20,20c-11.046,0 -20,-8.954 -20,-20c0,-11.046 8.954,-20 20,-20c4.974,0 9.514,1.827 13.013,4.831c0.136,-0.229 0.266,-0.461 0.38,-0.698l2.13,-4.433l1.568,4.662c2,5.945 2.96,11.012 2.891,15.273c0.002,0.123 0.018,0.242 0.018,0.365z" id="strokeMainSVG" fill="#dddddd" stroke="#dddddd" stroke-width="6" stroke-linejoin="round"></path><g transform="scale(5.33333,5.33333)" stroke="none" stroke-width="1" stroke-linejoin="miter"><path d="M43.982,23.635c0.069,-4.261 -0.891,-9.328 -2.891,-15.273l-1.568,-4.662l-2.13,4.433c-0.114,0.237 -0.244,0.469 -0.38,0.698c-3.499,-3.004 -8.039,-4.831 -13.013,-4.831c-11.046,0 -20,8.954 -20,20c0,11.046 8.954,20 20,20c11.046,0 20,-8.954 20,-20c0,-0.123 -0.016,-0.242 -0.018,-0.365z" fill="#8bc34a"></path><path d="M39.385,32.558c-3.123,4.302 -8.651,4.533 -13.854,4.442h-6.781h-1.938c4.428,-1.593 7.063,-1.972 9.754,-3.4c5.068,-2.665 10.078,-8.496 11.121,-14.562c-1.93,5.836 -7.779,10.85 -13.109,12.889c-3.652,1.393 -10.248,2.745 -10.248,2.745l-0.267,-0.145c-4.49,-2.259 -4.626,-12.313 3.537,-15.559c3.574,-1.423 6.993,-0.641 10.854,-1.593c4.122,-1.012 8.89,-4.208 10.83,-8.375c2.172,6.667 4.786,17.106 0.101,23.558zM15.668,38.445c-0.282,0.35 -0.713,0.555 -1.163,0.555c-0.823,0 -1.495,-0.677 -1.495,-1.5c0,-0.823 0.677,-1.5 1.495,-1.5c0.341,0 0.677,0.118 0.941,0.336c0.64,0.519 0.74,1.469 0.222,2.109z" fill="#ffffff"></path></g></g><g fill="none" fill-rule="nonzero" stroke="none" stroke-width="none" stroke-linecap="butt" stroke-linejoin="none" stroke-miterlimit="10" stroke-dasharray="" stroke-dashoffset="0" font-family="none" font-weight="none" font-size="none" text-anchor="none" style="mix-blend-mode: normal"><path d="M74.34333,254.24667c-2.14667,-0.62 -3.70667,-1.38 -4.68,-2.28c-0.98,-0.89333 -1.47,-2 -1.47,-3.32c0,-1.49333 0.59667,-2.73 1.79,-3.71c1.19333,-0.97333 2.74667,-1.46 4.66,-1.46c1.3,0 2.46,0.25 3.48,0.75c1.02,0.50667 1.81,1.20333 2.37,2.09c0.56,0.88 0.84,1.84667 0.84,2.9h-2.51c0,-1.14667 -0.36667,-2.04667 -1.1,-2.7c-0.72667,-0.65333 -1.75333,-0.98 -3.08,-0.98c-1.23333,0 -2.19667,0.27 -2.89,0.81c-0.68667,0.54 -1.03,1.29333 -1.03,2.26c0,0.77333 0.32667,1.42667 0.98,1.96c0.65333,0.53333 1.77,1.02 3.35,1.46c1.57333,0.44667 2.80333,0.93667 3.69,1.47c0.89333,0.53333 1.55333,1.15667 1.98,1.87c0.43333,0.70667 0.65,1.54333 0.65,2.51c0,1.53333 -0.6,2.76333 -1.8,3.69c-1.2,0.92667 -2.8,1.39 -4.8,1.39c-1.30667,0 -2.52333,-0.25 -3.65,-0.75c-1.12667,-0.5 -1.99667,-1.18333 -2.61,-2.05c-0.61333,-0.86667 -0.92,-1.85333 -0.92,-2.96h2.51c0,1.14667 0.42333,2.05333 1.27,2.72c0.84667,0.66 1.98,0.99 3.4,0.99c1.32,0 2.33,-0.26667 3.03,-0.8c0.7,-0.54 1.05,-1.27333 1.05,-2.2c0,-0.93333 -0.32333,-1.65333 -0.97,-2.16c-0.65333,-0.50667 -1.83333,-1.00667 -3.54,-1.5zM96.09333,255.80667c0,2.14 -0.49,3.86667 -1.47,5.18c-0.98,1.31333 -2.30667,1.97 -3.98,1.97c-1.71333,0 -3.06,-0.54333 -4.04,-1.63v6.78h-2.41v-19.5h2.2l0.12,1.56c0.98,-1.21333 2.34333,-1.82 4.09,-1.82c1.69333,0 3.03333,0.63667 4.02,1.91c0.98,1.28 1.47,3.05667 1.47,5.33zM93.69333,255.53667c0,-1.59333 -0.34,-2.85 -1.02,-3.77c-0.68,-0.92 -1.61,-1.38 -2.79,-1.38c-1.45333,0 -2.54667,0.64667 -3.28,1.94v6.73c0.72,1.28667 1.82333,1.93 3.31,1.93c1.15333,0 2.07,-0.45667 2.75,-1.37c0.68667,-0.92 1.03,-2.28 1.03,-4.08zM105.96333,250.76667c-0.36,-0.06 -0.75333,-0.09 -1.18,-0.09c-1.58,0 -2.65333,0.67333 -3.22,2.02v10h-2.41v-14.09h2.35l0.04,1.63c0.78667,-1.26 1.90667,-1.89 3.36,-1.89c0.46667,0 0.82,0.06 1.06,0.18zM110.79333,248.60667v14.09h-2.4v-14.09zM108.19333,244.86667c0,-0.38667 0.12,-0.71667 0.36,-0.99c0.24,-0.26667 0.59333,-0.4 1.06,-0.4c0.46667,0 0.82333,0.13333 1.07,0.4c0.24,0.27333 0.36,0.60333 0.36,0.99c0,0.39333 -0.12,0.72 -0.36,0.98c-0.24667,0.26 -0.60333,0.39 -1.07,0.39c-0.46667,0 -0.82,-0.13 -1.06,-0.39c-0.24,-0.26 -0.36,-0.58667 -0.36,-0.98zM114.65333,248.60667h2.28l0.08,1.77c1.07333,-1.35333 2.47667,-2.03 4.21,-2.03c2.98,0 4.48333,1.68 4.51,5.04v9.31h-2.41v-9.33c-0.00667,-1.01333 -0.24,-1.76333 -0.7,-2.25c-0.45333,-0.48667 -1.16,-0.73 -2.12,-0.73c-0.78667,0 -1.47333,0.21 -2.06,0.63c-0.59333,0.41333 -1.05333,0.96 -1.38,1.64v10.04h-2.41zM128.79333,255.53667c0,-2.2 0.50667,-3.95 1.52,-5.25c1.02,-1.29333 2.36667,-1.94 4.04,-1.94c1.72,0 3.06,0.60667 4.02,1.82l0.12,-1.56h2.2v13.75c0,1.82 -0.54,3.25667 -1.62,4.31c-1.08,1.04667 -2.53333,1.57 -4.36,1.57c-1.01333,0 -2.00667,-0.21667 -2.98,-0.65c-0.97333,-0.43333 -1.71333,-1.02667 -2.22,-1.78l1.25,-1.45c1.03333,1.28 2.29333,1.92 3.78,1.92c1.17333,0 2.09,-0.33 2.75,-0.99c0.65333,-0.66 0.98,-1.59 0.98,-2.79v-1.21c-0.96667,1.11333 -2.28333,1.67 -3.95,1.67c-1.64667,0 -2.98,-0.66667 -4,-2c-1.02,-1.32667 -1.53,-3.13333 -1.53,-5.42zM131.21333,255.80667c0,1.58667 0.32667,2.83333 0.98,3.74c0.64667,0.90667 1.55667,1.36 2.73,1.36c1.52,0 2.63667,-0.69 3.35,-2.07v-6.43c-0.74,-1.34667 -1.84667,-2.02 -3.32,-2.02c-1.17333,0 -2.09,0.45667 -2.75,1.37c-0.66,0.91333 -0.99,2.26333 -0.99,4.05zM162.85333,255.80667c0,2.15333 -0.49333,3.88333 -1.48,5.19c-0.99333,1.30667 -2.32333,1.96 -3.99,1.96c-1.78,0 -3.15333,-0.63 -4.12,-1.89l-0.12,1.63h-2.21v-20h2.4v7.46c0.97333,-1.20667 2.31667,-1.81 4.03,-1.81c1.70667,0 3.05,0.64667 4.03,1.94c0.97333,1.29333 1.46,3.06333 1.46,5.31zM160.44333,255.53667c0,-1.64667 -0.31667,-2.91667 -0.95,-3.81c-0.63333,-0.89333 -1.54333,-1.34 -2.73,-1.34c-1.58667,0 -2.73,0.74 -3.43,2.22v6.09c0.74,1.47333 1.89,2.21 3.45,2.21c1.16,0 2.06,-0.44667 2.7,-1.34c0.64,-0.89333 0.96,-2.23667 0.96,-4.03zM165.25333,255.51667c0,-1.38 0.27,-2.62 0.81,-3.72c0.54667,-1.10667 1.30333,-1.95667 2.27,-2.55c0.96667,-0.6 2.07,-0.9 3.31,-0.9c1.92,0 3.47333,0.66333 4.66,1.99c1.18,1.32667 1.77,3.09333 1.77,5.3v0.17c0,1.37333 -0.26,2.60333 -0.78,3.69c-0.52667,1.08667 -1.28,1.93667 -2.26,2.55c-0.97333,0.60667 -2.09333,0.91 -3.36,0.91c-1.91333,0 -3.46,-0.66667 -4.64,-2c-1.18667,-1.32667 -1.78,-3.08333 -1.78,-5.27zM167.67333,255.80667c0,1.56 0.36333,2.81333 1.09,3.76c0.72,0.94667 1.69,1.42 2.91,1.42c1.22,0 2.19,-0.48 2.91,-1.44c0.72,-0.96 1.08,-2.30333 1.08,-4.03c0,-1.54667 -0.36667,-2.79667 -1.1,-3.75c-0.73333,-0.96 -1.70667,-1.44 -2.92,-1.44c-1.18667,0 -2.14667,0.47333 -2.88,1.42c-0.72667,0.94667 -1.09,2.3 -1.09,4.06zM180.46333,255.51667c0,-1.38 0.27,-2.62 0.81,-3.72c0.54,-1.10667 1.29667,-1.95667 2.27,-2.55c0.96667,-0.6 2.07,-0.9 3.31,-0.9c1.92,0 3.47,0.66333 4.65,1.99c1.18667,1.32667 1.78,3.09333 1.78,5.3v0.17c0,1.37333 -0.26333,2.60333 -0.79,3.69c-0.52,1.08667 -1.27,1.93667 -2.25,2.55c-0.97333,0.60667 -2.09333,0.91 -3.36,0.91c-1.91333,0 -3.46333,-0.66667 -4.65,-2c-1.18,-1.32667 -1.77,-3.08333 -1.77,-5.27zM182.88333,255.80667c0,1.56 0.36333,2.81333 1.09,3.76c0.72,0.94667 1.69,1.42 2.91,1.42c1.22,0 2.19,-0.48 2.91,-1.44c0.72,-0.96 1.08,-2.30333 1.08,-4.03c0,-1.54667 -0.36667,-2.79667 -1.1,-3.75c-0.73333,-0.96 -1.70667,-1.44 -2.92,-1.44c-1.18667,0 -2.14667,0.47333 -2.88,1.42c-0.72667,0.94667 -1.09,2.3 -1.09,4.06zM197.16333,245.19667h2.41v3.41h2.63v1.86h-2.63v8.74c0,0.56 0.11667,0.98333 0.35,1.27c0.23333,0.28 0.63333,0.42 1.2,0.42c0.28,0 0.66333,-0.05333 1.15,-0.16v1.96c-0.63333,0.17333 -1.25,0.26 -1.85,0.26c-1.08,0 -1.89333,-0.32667 -2.44,-0.98c-0.54667,-0.65333 -0.82,-1.57667 -0.82,-2.77v-8.74h-2.56v-1.86h2.56z" id="strokeMainSVG" fill="#dddddd" stroke="#dddddd" stroke-width="32" stroke-linejoin="round"></path><g fill="#000000" stroke="none" stroke-width="1" stroke-linejoin="miter"><path d="M74.34333,254.24667v0c-2.14667,-0.62 -3.70667,-1.38 -4.68,-2.28c-0.98,-0.89333 -1.47,-2 -1.47,-3.32v0c0,-1.49333 0.59667,-2.73 1.79,-3.71c1.19333,-0.97333 2.74667,-1.46 4.66,-1.46v0c1.3,0 2.46,0.25 3.48,0.75c1.02,0.50667 1.81,1.20333 2.37,2.09c0.56,0.88 0.84,1.84667 0.84,2.9v0h-2.51c0,-1.14667 -0.36667,-2.04667 -1.1,-2.7c-0.72667,-0.65333 -1.75333,-0.98 -3.08,-0.98v0c-1.23333,0 -2.19667,0.27 -2.89,0.81c-0.68667,0.54 -1.03,1.29333 -1.03,2.26v0c0,0.77333 0.32667,1.42667 0.98,1.96c0.65333,0.53333 1.77,1.02 3.35,1.46c1.57333,0.44667 2.80333,0.93667 3.69,1.47c0.89333,0.53333 1.55333,1.15667 1.98,1.87c0.43333,0.70667 0.65,1.54333 0.65,2.51v0c0,1.53333 -0.6,2.76333 -1.8,3.69c-1.2,0.92667 -2.8,1.39 -4.8,1.39v0c-1.30667,0 -2.52333,-0.25 -3.65,-0.75c-1.12667,-0.5 -1.99667,-1.18333 -2.61,-2.05c-0.61333,-0.86667 -0.92,-1.85333 -0.92,-2.96v0h2.51c0,1.14667 0.42333,2.05333 1.27,2.72c0.84667,0.66 1.98,0.99 3.4,0.99v0c1.32,0 2.33,-0.26667 3.03,-0.8c0.7,-0.54 1.05,-1.27333 1.05,-2.2c0,-0.93333 -0.32333,-1.65333 -0.97,-2.16c-0.65333,-0.50667 -1.83333,-1.00667 -3.54,-1.5zM96.09333,255.58667v0.22c0,2.14 -0.49,3.86667 -1.47,5.18c-0.98,1.31333 -2.30667,1.97 -3.98,1.97v0c-1.71333,0 -3.06,-0.54333 -4.04,-1.63v0v6.78h-2.41v-19.5h2.2l0.12,1.56c0.98,-1.21333 2.34333,-1.82 4.09,-1.82v0c1.69333,0 3.03333,0.63667 4.02,1.91c0.98,1.28 1.47,3.05667 1.47,5.33zM93.69333,255.53667v0c0,-1.59333 -0.34,-2.85 -1.02,-3.77c-0.68,-0.92 -1.61,-1.38 -2.79,-1.38v0c-1.45333,0 -2.54667,0.64667 -3.28,1.94v0v6.73c0.72,1.28667 1.82333,1.93 3.31,1.93v0c1.15333,0 2.07,-0.45667 2.75,-1.37c0.68667,-0.92 1.03,-2.28 1.03,-4.08zM105.96333,248.52667v2.24c-0.36,-0.06 -0.75333,-0.09 -1.18,-0.09v0c-1.58,0 -2.65333,0.67333 -3.22,2.02v0v10h-2.41v-14.09h2.35l0.04,1.63c0.78667,-1.26 1.90667,-1.89 3.36,-1.89v0c0.46667,0 0.82,0.06 1.06,0.18zM110.79333,248.60667v14.09h-2.4v-14.09zM108.19333,244.86667v0c0,-0.38667 0.12,-0.71667 0.36,-0.99c0.24,-0.26667 0.59333,-0.4 1.06,-0.4c0.46667,0 0.82333,0.13333 1.07,0.4c0.24,0.27333 0.36,0.60333 0.36,0.99c0,0.39333 -0.12,0.72 -0.36,0.98c-0.24667,0.26 -0.60333,0.39 -1.07,0.39c-0.46667,0 -0.82,-0.13 -1.06,-0.39c-0.24,-0.26 -0.36,-0.58667 -0.36,-0.98zM114.65333,248.60667h2.28l0.08,1.77c1.07333,-1.35333 2.47667,-2.03 4.21,-2.03v0c2.98,0 4.48333,1.68 4.51,5.04v0v9.31h-2.41v-9.33c-0.00667,-1.01333 -0.24,-1.76333 -0.7,-2.25c-0.45333,-0.48667 -1.16,-0.73 -2.12,-0.73v0c-0.78667,0 -1.47333,0.21 -2.06,0.63c-0.59333,0.41333 -1.05333,0.96 -1.38,1.64v0v10.04h-2.41zM128.79333,255.53667v0c0,-2.2 0.50667,-3.95 1.52,-5.25c1.02,-1.29333 2.36667,-1.94 4.04,-1.94v0c1.72,0 3.06,0.60667 4.02,1.82v0l0.12,-1.56h2.2v13.75c0,1.82 -0.54,3.25667 -1.62,4.31c-1.08,1.04667 -2.53333,1.57 -4.36,1.57v0c-1.01333,0 -2.00667,-0.21667 -2.98,-0.65c-0.97333,-0.43333 -1.71333,-1.02667 -2.22,-1.78v0l1.25,-1.45c1.03333,1.28 2.29333,1.92 3.78,1.92v0c1.17333,0 2.09,-0.33 2.75,-0.99c0.65333,-0.66 0.98,-1.59 0.98,-2.79v0v-1.21c-0.96667,1.11333 -2.28333,1.67 -3.95,1.67v0c-1.64667,0 -2.98,-0.66667 -4,-2c-1.02,-1.32667 -1.53,-3.13333 -1.53,-5.42zM131.21333,255.80667v0c0,1.58667 0.32667,2.83333 0.98,3.74c0.64667,0.90667 1.55667,1.36 2.73,1.36v0c1.52,0 2.63667,-0.69 3.35,-2.07v0v-6.43c-0.74,-1.34667 -1.84667,-2.02 -3.32,-2.02v0c-1.17333,0 -2.09,0.45667 -2.75,1.37c-0.66,0.91333 -0.99,2.26333 -0.99,4.05zM162.85333,255.59667v0.21c0,2.15333 -0.49333,3.88333 -1.48,5.19c-0.99333,1.30667 -2.32333,1.96 -3.99,1.96v0c-1.78,0 -3.15333,-0.63 -4.12,-1.89v0l-0.12,1.63h-2.21v-20h2.4v7.46c0.97333,-1.20667 2.31667,-1.81 4.03,-1.81c1.70667,0 3.05,0.64667 4.03,1.94c0.97333,1.29333 1.46,3.06333 1.46,5.31zM160.44333,255.53667v0c0,-1.64667 -0.31667,-2.91667 -0.95,-3.81c-0.63333,-0.89333 -1.54333,-1.34 -2.73,-1.34v0c-1.58667,0 -2.73,0.74 -3.43,2.22v0v6.09c0.74,1.47333 1.89,2.21 3.45,2.21v0c1.16,0 2.06,-0.44667 2.7,-1.34c0.64,-0.89333 0.96,-2.23667 0.96,-4.03zM165.25333,255.68667v-0.17c0,-1.38 0.27,-2.62 0.81,-3.72c0.54667,-1.10667 1.30333,-1.95667 2.27,-2.55c0.96667,-0.6 2.07,-0.9 3.31,-0.9v0c1.92,0 3.47333,0.66333 4.66,1.99c1.18,1.32667 1.77,3.09333 1.77,5.3v0v0.17c0,1.37333 -0.26,2.60333 -0.78,3.69c-0.52667,1.08667 -1.28,1.93667 -2.26,2.55c-0.97333,0.60667 -2.09333,0.91 -3.36,0.91v0c-1.91333,0 -3.46,-0.66667 -4.64,-2c-1.18667,-1.32667 -1.78,-3.08333 -1.78,-5.27zM167.67333,255.80667v0c0,1.56 0.36333,2.81333 1.09,3.76c0.72,0.94667 1.69,1.42 2.91,1.42v0c1.22,0 2.19,-0.48 2.91,-1.44c0.72,-0.96 1.08,-2.30333 1.08,-4.03v0c0,-1.54667 -0.36667,-2.79667 -1.1,-3.75c-0.73333,-0.96 -1.70667,-1.44 -2.92,-1.44v0c-1.18667,0 -2.14667,0.47333 -2.88,1.42c-0.72667,0.94667 -1.09,2.3 -1.09,4.06zM180.46333,255.68667v-0.17c0,-1.38 0.27,-2.62 0.81,-3.72c0.54,-1.10667 1.29667,-1.95667 2.27,-2.55c0.96667,-0.6 2.07,-0.9 3.31,-0.9v0c1.92,0 3.47,0.66333 4.65,1.99c1.18667,1.32667 1.78,3.09333 1.78,5.3v0v0.17c0,1.37333 -0.26333,2.60333 -0.79,3.69c-0.52,1.08667 -1.27,1.93667 -2.25,2.55c-0.97333,0.60667 -2.09333,0.91 -3.36,0.91v0c-1.91333,0 -3.46333,-0.66667 -4.65,-2c-1.18,-1.32667 -1.77,-3.08333 -1.77,-5.27zM182.88333,255.80667v0c0,1.56 0.36333,2.81333 1.09,3.76c0.72,0.94667 1.69,1.42 2.91,1.42v0c1.22,0 2.19,-0.48 2.91,-1.44c0.72,-0.96 1.08,-2.30333 1.08,-4.03v0c0,-1.54667 -0.36667,-2.79667 -1.1,-3.75c-0.73333,-0.96 -1.70667,-1.44 -2.92,-1.44v0c-1.18667,0 -2.14667,0.47333 -2.88,1.42c-0.72667,0.94667 -1.09,2.3 -1.09,4.06zM197.16333,245.19667h2.41v3.41h2.63v1.86h-2.63v8.74c0,0.56 0.11667,0.98333 0.35,1.27c0.23333,0.28 0.63333,0.42 1.2,0.42v0c0.28,0 0.66333,-0.05333 1.15,-0.16v0v1.96c-0.63333,0.17333 -1.25,0.26 -1.85,0.26v0c-1.08,0 -1.89333,-0.32667 -2.44,-0.98c-0.54667,-0.65333 -0.82,-1.57667 -0.82,-2.77v0v-8.74h-2.56v-1.86h2.56z"></path></g></g></g></svg>